<svg width="67" height="60" viewBox="0 0 67 60" fill="none" xmlns="http://www.w3.org/2000/svg">
<path d="M16.5244 7.5C16.5244 5.76106 17.1834 4.1024 18.3423 2.88669C19.4996 1.6726 21.0588 1 22.6738 1H44.1221C45.7372 1 47.2964 1.6726 48.4537 2.88669C49.6126 4.1024 50.2716 5.76106 50.2716 7.5V52.5C50.2716 54.2389 49.6126 55.8976 48.4537 57.1133C47.2964 58.3274 45.7372 59 44.1221 59H22.6738C21.0588 59 19.4996 58.3274 18.3423 57.1133C17.1834 55.8976 16.5244 54.2389 16.5244 52.5V7.5ZM37.9727 48.75C37.9727 47.5053 37.5018 46.3024 36.6495 45.4084C35.7957 44.5127 34.6271 44 33.398 44C32.1688 44 31.0003 44.5127 30.1465 45.4084C29.2942 46.3024 28.8233 47.5053 28.8233 48.75C28.8233 49.9947 29.2942 51.1976 30.1465 52.0916C31.0003 52.9873 32.1688 53.5 33.398 53.5C34.6271 53.5 35.7957 52.9873 36.6495 52.0916C37.5018 51.1976 37.9727 49.9947 37.9727 48.75Z" stroke="#6C757D" stroke-opacity="0.78" stroke-width="2"/>
<path d="M60.512 37.8874C60.5388 37.8098 60.5878 37.7428 60.6522 37.6954C60.7166 37.6481 60.7934 37.6227 60.872 37.6227C60.9507 37.6227 61.0274 37.6481 61.0918 37.6954C61.1563 37.7428 61.2052 37.8098 61.232 37.8874L61.5982 38.9369C61.885 39.7598 62.3396 40.5071 62.9302 41.1267C63.5208 41.7463 64.2332 42.2231 65.0177 42.524L66.0173 42.9081C66.0913 42.9363 66.1551 42.9876 66.2003 43.0552C66.2454 43.1227 66.2697 43.2033 66.2697 43.2858C66.2697 43.3683 66.2454 43.4488 66.2003 43.5164C66.1551 43.584 66.0913 43.6353 66.0173 43.6635L65.0177 44.0476C64.2332 44.3484 63.5208 44.8253 62.9302 45.4449C62.3396 46.0644 61.885 46.8118 61.5982 47.6347L61.232 48.6834C61.2052 48.7609 61.1563 48.828 61.0918 48.8753C61.0274 48.9227 60.9507 48.9481 60.872 48.9481C60.7934 48.9481 60.7166 48.9227 60.6522 48.8753C60.5878 48.828 60.5388 48.7609 60.512 48.6834L60.1458 47.6347C59.8591 46.8118 59.4045 46.0644 58.8139 45.4449C58.2233 44.8253 57.5108 44.3484 56.7264 44.0476L55.726 43.6635C55.652 43.6353 55.5881 43.584 55.543 43.5164C55.4979 43.4488 55.4736 43.3683 55.4736 43.2858C55.4736 43.2033 55.4979 43.1227 55.543 43.0552C55.5881 42.9876 55.652 42.9363 55.726 42.9081L56.7264 42.524C57.5108 42.2231 58.2233 41.7463 58.8139 41.1267C59.4045 40.5071 59.8591 39.7598 60.1458 38.9369L60.512 37.8874Z" fill="#6C757D" fill-opacity="0.78"/>
<path d="M5.76786 11.316C5.7947 11.2384 5.84365 11.1714 5.90806 11.124C5.97247 11.0767 6.04923 11.0513 6.12788 11.0513C6.20654 11.0513 6.28329 11.0767 6.34771 11.124C6.41212 11.1714 6.46107 11.2384 6.48791 11.316L6.85406 12.3654C7.14086 13.1884 7.59543 13.9357 8.18604 14.5553C8.77665 15.1749 9.48907 15.6517 10.2735 15.9526L11.2732 16.3367C11.3471 16.3648 11.411 16.4162 11.4561 16.4838C11.5013 16.5513 11.5255 16.6319 11.5255 16.7144C11.5255 16.7969 11.5013 16.8774 11.4561 16.945C11.411 17.0125 11.3471 17.0639 11.2732 17.092L10.2735 17.4762C9.48907 17.777 8.77665 18.2539 8.18604 18.8734C7.59543 19.493 7.14086 20.2404 6.85406 21.0633L6.48791 22.112C6.46107 22.1895 6.41212 22.2565 6.34771 22.3039C6.28329 22.3513 6.20654 22.3767 6.12788 22.3767C6.04923 22.3767 5.97247 22.3513 5.90806 22.3039C5.84365 22.2565 5.7947 22.1895 5.76786 22.112L5.40171 21.0633C5.11491 20.2404 4.66034 19.493 4.06973 18.8734C3.47911 18.2539 2.7667 17.777 1.98224 17.4762L0.981826 17.092C0.907886 17.0639 0.844003 17.0125 0.798857 16.945C0.753711 16.8774 0.729492 16.7969 0.729492 16.7144C0.729492 16.6319 0.753711 16.5513 0.798857 16.4838C0.844003 16.4162 0.907886 16.3648 0.981826 16.3367L1.98224 15.9526C2.7667 15.6517 3.47911 15.1749 4.06973 14.5553C4.66034 13.9357 5.11491 13.1884 5.40171 12.3654L5.76786 11.316Z" fill="#6C757D" fill-opacity="0.78"/>
</svg>
