<svg width="22" height="15" viewBox="0 0 22 15" fill="none" xmlns="http://www.w3.org/2000/svg">
<path d="M21.6466 10.0219C21.7021 11.3804 21.5773 12.3924 21.2723 13.0578C20.9951 13.6955 20.5653 14.0975 19.9831 14.2639C19.5118 14.4025 18.9434 14.347 18.278 14.0975C17.3353 13.7094 16.2125 12.9053 14.9094 11.6854C14.0776 10.8814 12.7745 10.4794 11.0001 10.4794C9.2257 10.4794 7.92261 10.8814 7.09086 11.6854C5.78777 12.9053 4.6649 13.7094 3.72224 14.0975C3.11228 14.347 2.54391 14.4025 2.01713 14.2639C1.46263 14.1252 1.03289 13.7371 0.727908 13.0994C0.42293 12.3786 0.298166 11.3666 0.353617 10.0635C0.409067 8.84358 0.603144 7.56822 0.935847 6.23741C1.24083 4.98977 1.64284 3.90848 2.1419 2.99355C2.50232 2.35587 2.89048 1.84295 3.30636 1.4548C3.72224 1.06664 4.09653 0.789392 4.42923 0.623039C4.76193 0.456688 5.19861 0.380444 5.73925 0.394306C6.27989 0.408169 6.7027 0.442825 7.00768 0.498276C7.31266 0.553726 7.78399 0.664628 8.42167 0.830979C9.5584 1.10823 10.3763 1.27458 10.8754 1.33003H11.1249C11.6239 1.27458 12.4418 1.10823 13.5786 0.830979C14.1885 0.664628 14.6599 0.546795 14.9926 0.477482C15.3253 0.408169 15.7481 0.373512 16.261 0.373512C16.7739 0.373512 17.2036 0.456688 17.5502 0.623039C17.8968 0.789392 18.278 1.05971 18.6939 1.434C19.1098 1.8083 19.4979 2.31428 19.8583 2.95196C20.3019 3.78372 20.704 4.865 21.0644 6.19582C21.3971 7.52663 21.5912 8.80199 21.6466 10.0219ZM20.3574 12.6835C20.6069 12.129 20.704 11.2695 20.6485 10.1051C20.5931 8.99607 20.4128 7.77616 20.1079 6.44534C19.8029 5.19771 19.4286 4.1996 18.985 3.45102C18.7355 3.00741 18.4859 2.64005 18.2364 2.34894C17.9869 2.05782 17.7166 1.84988 17.4254 1.72512C17.1343 1.60036 16.8709 1.50332 16.6353 1.434C16.3996 1.36469 16.0877 1.35083 15.6996 1.39242C15.3114 1.434 15.0134 1.47559 14.8054 1.51718C14.5975 1.55877 14.2717 1.63501 13.8281 1.74591C12.7191 2.05089 11.8319 2.2311 11.1665 2.28656H11.1249H10.8338H10.7922C10.1545 2.2311 9.28115 2.05089 8.17214 1.74591C7.75626 1.63501 7.43049 1.55877 7.19483 1.51718C6.95916 1.47559 6.66111 1.434 6.30069 1.39242C5.94026 1.35083 5.63528 1.35776 5.38575 1.41321C5.13623 1.46866 4.8659 1.5657 4.57479 1.70432C4.28367 1.84295 4.01335 2.05782 3.76382 2.34894C3.5143 2.64005 3.26477 3.00741 3.01524 3.45102C2.59936 4.17187 2.22507 5.16998 1.89237 6.44534C1.58739 7.63753 1.40718 8.85744 1.35173 10.1051C1.29628 11.2418 1.37945 12.0874 1.60125 12.6419C1.76761 13.0024 1.98941 13.2242 2.26666 13.3073C2.51619 13.3905 2.87662 13.3489 3.34795 13.1826C4.12425 12.8776 5.15009 12.1429 6.42545 10.9784C7.47901 10.008 9.0039 9.52285 11.0001 9.52285C13.0241 9.52285 14.549 10.0219 15.5748 11.02C16.7392 12.129 17.7651 12.8637 18.6523 13.2242C19.0959 13.3905 19.4563 13.4321 19.7336 13.3489C20.0108 13.2658 20.2188 13.044 20.3574 12.6835ZM8.54643 4.865C8.85141 5.16998 9.0039 5.53734 9.0039 5.96708C9.0039 6.39683 8.85141 6.75032 8.54643 7.02758C8.29691 7.30483 7.97807 7.45732 7.58991 7.48504C7.58991 7.81775 7.45128 8.13659 7.17403 8.44156C6.86905 8.74654 6.50169 8.89903 6.07195 8.89903C5.64221 8.89903 5.27485 8.74654 4.96987 8.44156C4.69262 8.19204 4.54013 7.8732 4.51241 7.48504C4.15198 7.45732 3.83314 7.30483 3.55589 7.02758C3.25091 6.75032 3.09842 6.39683 3.09842 5.96708C3.09842 5.53734 3.25091 5.16998 3.55589 4.865V4.82342C3.86086 4.57389 4.1797 4.43526 4.51241 4.40754C4.54013 4.04711 4.69262 3.72827 4.96987 3.45102C5.27485 3.14604 5.64221 2.99355 6.07195 2.99355C6.50169 2.99355 6.86905 3.14604 7.17403 3.45102V3.49261C7.42356 3.74213 7.56219 4.04711 7.58991 4.40754C7.92261 4.43526 8.24146 4.58775 8.54643 4.865ZM7.50674 6.52852C7.67309 6.52852 7.80478 6.47307 7.90182 6.36217C7.99886 6.25127 8.04738 6.11264 8.04738 5.94629C8.04738 5.77994 7.99886 5.64824 7.90182 5.55121C7.80478 5.45417 7.67309 5.40565 7.50674 5.40565H7.13244C6.99382 5.40565 6.87599 5.35713 6.77895 5.26009C6.68191 5.16305 6.63339 5.04522 6.63339 4.90659V4.5323C6.63339 4.39368 6.5918 4.26891 6.50863 4.15801L6.46704 4.11642C6.35614 4.00552 6.22444 3.95007 6.07195 3.95007C5.91946 3.95007 5.78777 4.00552 5.67687 4.11642C5.56597 4.22732 5.51052 4.36595 5.51052 4.5323V4.90659C5.51052 5.04522 5.462 5.16305 5.36496 5.26009C5.26792 5.35713 5.15009 5.40565 5.01146 5.40565H4.63717C4.49854 5.40565 4.37378 5.44724 4.26288 5.53041L4.22129 5.572C4.13812 5.65518 4.09653 5.77994 4.09653 5.94629C4.09653 6.08492 4.14505 6.20968 4.24209 6.32058C4.33912 6.43148 4.47082 6.48693 4.63717 6.48693H5.01146C5.09464 6.48693 5.17781 6.50773 5.26099 6.54931C5.34416 6.5909 5.40655 6.65328 5.44813 6.73646C5.48972 6.81964 5.51052 6.90281 5.51052 6.98599V7.36028C5.51052 7.52663 5.56597 7.65833 5.67687 7.75536C5.78777 7.8524 5.91946 7.90092 6.07195 7.90092C6.22444 7.90092 6.35614 7.8524 6.46704 7.75536C6.57794 7.65833 6.63339 7.52663 6.63339 7.36028V7.02758C6.63339 6.88895 6.68191 6.77112 6.77895 6.67408C6.87599 6.57704 6.99382 6.52852 7.13244 6.52852H7.50674ZM14.9718 4.71945C14.9718 4.71945 14.9267 4.67439 14.8366 4.58429C14.7465 4.49418 14.7014 4.32436 14.7014 4.07483C14.7014 3.82531 14.7915 3.61044 14.9718 3.43022C15.152 3.25001 15.3668 3.1599 15.6164 3.1599C15.8659 3.1599 16.0808 3.25001 16.261 3.43022C16.4412 3.61044 16.5313 3.82531 16.5313 4.07483C16.5313 4.32436 16.4412 4.53923 16.261 4.71945C16.0808 4.89966 15.8659 4.98977 15.6164 4.98977C15.3668 4.98977 15.152 4.89966 14.9718 4.71945ZM14.9718 8.50395C14.9718 8.50395 14.9267 8.45889 14.8366 8.36879C14.7465 8.27868 14.7014 8.10193 14.7014 7.83854C14.7014 7.57515 14.7915 7.35335 14.9718 7.17313C15.152 6.99292 15.3668 6.90281 15.6164 6.90281C15.8659 6.90281 16.0808 6.99292 16.261 7.17313C16.4412 7.35335 16.5313 7.57515 16.5313 7.83854C16.5313 8.10193 16.4412 8.32373 16.261 8.50395C16.0808 8.68416 15.8659 8.77427 15.6164 8.77427C15.3668 8.77427 15.152 8.68416 14.9718 8.50395ZM12.7884 5.94629C12.7884 5.69676 12.8785 5.48189 13.0587 5.30168C13.2389 5.12146 13.4607 5.03136 13.7241 5.03136C13.9875 5.03136 14.2093 5.12146 14.3895 5.30168C14.5697 5.48189 14.6599 5.69676 14.6599 5.94629C14.6599 6.19582 14.5697 6.41762 14.3895 6.6117C14.2093 6.80577 13.9944 6.90281 13.7449 6.90281C13.5786 6.90281 13.4191 6.86122 13.2667 6.77805C13.1142 6.69487 12.9963 6.57704 12.9132 6.42455C12.83 6.27206 12.7884 6.11264 12.7884 5.94629ZM16.5729 5.94629C16.5729 5.69676 16.663 5.48189 16.8432 5.30168C17.0234 5.12146 17.2383 5.03136 17.4878 5.03136C17.7374 5.03136 17.9592 5.12146 18.1532 5.30168C18.3473 5.48189 18.4444 5.69676 18.4444 5.94629C18.4444 6.19582 18.3473 6.41762 18.1532 6.6117C17.9592 6.80577 17.7374 6.90281 17.4878 6.90281C17.3215 6.90281 17.169 6.86122 17.0304 6.77805C16.8917 6.69487 16.7808 6.57704 16.6977 6.42455C16.6145 6.27206 16.5729 6.11264 16.5729 5.94629Z" fill="black"/>
</svg>
