<svg width="18" height="18" viewBox="0 0 18 18" fill="none" xmlns="http://www.w3.org/2000/svg">
<path d="M9.00391 4.57764C6.51953 4.57764 4.51562 6.58154 4.51562 9.06592C4.51562 11.5503 6.51953 13.5542 9.00391 13.5542C11.4883 13.5542 13.4922 11.5503 13.4922 9.06592C13.4922 6.58154 11.4883 4.57764 9.00391 4.57764ZM9.00391 11.9839C7.39844 11.9839 6.08594 10.6753 6.08594 9.06592C6.08594 7.45654 7.39453 6.14795 9.00391 6.14795C10.6133 6.14795 11.9219 7.45654 11.9219 9.06592C11.9219 10.6753 10.6094 11.9839 9.00391 11.9839ZM14.7227 4.39404C14.7227 4.97607 14.2539 5.44092 13.6758 5.44092C13.0938 5.44092 12.6289 4.97217 12.6289 4.39404C12.6289 3.81592 13.0977 3.34717 13.6758 3.34717C14.2539 3.34717 14.7227 3.81592 14.7227 4.39404ZM17.6953 5.45654C17.6289 4.0542 17.3086 2.81201 16.2812 1.78857C15.2578 0.765137 14.0156 0.444824 12.6133 0.374512C11.168 0.29248 6.83594 0.29248 5.39062 0.374512C3.99219 0.440918 2.75 0.76123 1.72266 1.78467C0.695313 2.80811 0.378906 4.05029 0.308594 5.45264C0.226562 6.89795 0.226562 11.23 0.308594 12.6753C0.375 14.0776 0.695313 15.3198 1.72266 16.3433C2.75 17.3667 3.98828 17.687 5.39062 17.7573C6.83594 17.8394 11.168 17.8394 12.6133 17.7573C14.0156 17.6909 15.2578 17.3706 16.2812 16.3433C17.3047 15.3198 17.625 14.0776 17.6953 12.6753C17.7773 11.23 17.7773 6.90186 17.6953 5.45654ZM15.8281 14.2261C15.5234 14.9917 14.9336 15.5815 14.1641 15.8901C13.0117 16.3472 10.2773 16.2417 9.00391 16.2417C7.73047 16.2417 4.99219 16.3433 3.84375 15.8901C3.07812 15.5854 2.48828 14.9956 2.17969 14.2261C1.72266 13.0737 1.82813 10.3394 1.82813 9.06592C1.82813 7.79248 1.72656 5.0542 2.17969 3.90576C2.48438 3.14014 3.07422 2.55029 3.84375 2.2417C4.99609 1.78467 7.73047 1.89014 9.00391 1.89014C10.2773 1.89014 13.0156 1.78857 14.1641 2.2417C14.9297 2.54639 15.5195 3.13623 15.8281 3.90576C16.2852 5.05811 16.1797 7.79248 16.1797 9.06592C16.1797 10.3394 16.2852 13.0776 15.8281 14.2261Z" fill="black"/>
</svg>
