<svg width="22" height="23" viewBox="0 0 22 23" fill="none" xmlns="http://www.w3.org/2000/svg">
<path d="M3.47261 3.83292C3.47261 3.83292 3.99246 3.31307 5.03215 2.27338C6.07185 1.23368 8.06114 0.713831 11 0.713831C13.9389 0.713831 16.448 1.75353 18.5274 3.83292C20.6068 5.91232 21.6465 8.42146 21.6465 11.3603C21.6465 14.2992 20.6068 16.8083 18.5274 18.8877C16.448 20.9671 13.9389 22.0068 11 22.0068C8.06114 22.0068 5.552 20.9671 3.47261 18.8877C1.39321 16.8083 0.353516 14.2992 0.353516 11.3603C0.353516 8.42146 1.39321 5.91232 3.47261 3.83292ZM19.2344 5.82914C18.1809 4.2488 16.7946 3.07048 15.0756 2.29417L11.3743 3.79134V7.65901L14.6182 10.2375L18.5274 8.94824L19.2344 5.82914ZM19.3176 16.8083C20.2048 15.4221 20.7316 13.9111 20.8979 12.2753L18.6938 9.65523L14.8261 10.9445L13.8696 14.8121L15.7826 17.349L19.3176 16.8083ZM6.21741 17.349L8.13045 14.8121L7.17393 10.9445L3.30626 9.65523L1.1021 12.2753C1.26845 13.9111 1.79523 15.4221 2.68244 16.8083L6.21741 17.349ZM1.06051 11.2356L2.8072 9.15617L2.22497 6.70249C1.47639 8.11648 1.08824 9.6275 1.06051 11.2356ZM8.79586 14.5626H13.2042L14.1607 10.7781L11 8.28283L7.83934 10.7781L8.79586 14.5626ZM19.1928 9.15617L20.9395 11.2356C20.9118 9.6275 20.5236 8.11648 19.7751 6.70249L19.1928 9.15617ZM14.1191 1.91988C12.0397 1.22675 9.96032 1.22675 7.88093 1.91988L11 3.16752L14.1191 1.91988ZM6.88282 2.29417C5.19157 3.0982 3.81917 4.27653 2.76561 5.82914L3.47261 8.94824L7.38187 10.2375L10.6257 7.65901V3.79134L6.88282 2.29417ZM3.30626 17.5985C4.52617 19.1234 6.06492 20.1908 7.92251 20.8008L6.17582 18.056L3.30626 17.5985ZM8.92062 21.0919C10.4178 21.3969 11.9011 21.3692 13.3705 21.0087L15.2004 17.7649L13.2874 15.2696H8.71268L6.79964 17.7649L8.92062 21.0919ZM14.3686 20.7176C16.0876 20.0799 17.5293 19.0402 18.6938 17.5985L15.8658 18.056L14.3686 20.7176Z" fill="black"/>
</svg>
