<svg width="22" height="21" viewBox="0 0 22 21" fill="none" xmlns="http://www.w3.org/2000/svg">
<path d="M16.5832 14.8745C16.5832 14.8745 16.604 14.8087 16.6456 14.677C16.6872 14.5453 16.8397 14.5141 17.103 14.5834C17.3664 14.6527 17.4635 14.8191 17.3942 15.0825C17.3248 15.3458 17.1516 15.4429 16.8743 15.3736C16.5971 15.3043 16.5 15.1379 16.5832 14.8745ZM5.43764 14.8745C5.43764 14.8745 5.45843 14.9404 5.50002 15.0721C5.54161 15.2037 5.42377 15.3043 5.14652 15.3736C4.86927 15.4429 4.69599 15.3458 4.62667 15.0825C4.55736 14.8191 4.6544 14.6527 4.91779 14.5834C5.18118 14.5141 5.35446 14.6111 5.43764 14.8745ZM21.1995 14.0635C21.6153 14.3963 21.754 14.826 21.6153 15.3528L20.534 19.3868C20.4509 19.7195 20.2568 19.969 19.9518 20.1354C19.6468 20.3017 19.328 20.3433 18.9953 20.2601L17.7477 19.9274C17.415 20.3988 16.9575 20.5651 16.3753 20.4265L14.7949 19.969C14.4622 19.8859 14.2058 19.6987 14.0255 19.4076C13.8453 19.1165 13.8107 18.8046 13.9216 18.4719L15.4187 12.8159C15.5019 12.4832 15.6891 12.2337 15.9802 12.0673C16.2713 11.901 16.5832 11.8594 16.9159 11.9426L18.5378 12.4C18.7042 12.4278 18.8567 12.4971 18.9953 12.608C19.0785 12.2198 19.1339 11.8317 19.1616 11.4435C18.6349 11.3049 18.3437 10.9583 18.2883 10.4038C18.1774 9.26708 17.7754 8.20658 17.0822 7.22234C16.3891 6.23809 15.5019 5.46178 14.4206 4.89342C13.3393 4.32505 12.2026 4.04086 11.0104 4.04086C9.18055 4.04086 7.55169 4.66468 6.12384 5.91232C4.69599 7.15996 3.89888 8.65712 3.73253 10.4038C3.67708 10.9583 3.38597 11.3049 2.85919 11.4435C2.88691 11.8317 2.94236 12.2198 3.02554 12.608C3.16416 12.4971 3.31665 12.4278 3.48301 12.4L5.10493 11.9426C5.43764 11.8594 5.74955 11.901 6.04066 12.0673C6.33178 12.2337 6.51892 12.4832 6.6021 12.8159L8.09926 18.4719C8.21016 18.7768 8.17551 19.0818 7.99529 19.3868C7.81508 19.6918 7.55862 19.8859 7.22592 19.969L5.64558 20.4265C5.06335 20.5651 4.60588 20.3988 4.27318 19.9274L3.02554 20.2601C2.69284 20.3433 2.37399 20.3017 2.06902 20.1354C1.76404 19.969 1.56996 19.7195 1.48679 19.3868L0.405501 15.3528C0.266874 14.826 0.405501 14.3963 0.82138 14.0635C0.516402 13.0377 0.363913 12.0535 0.363913 11.1108C0.363913 8.2551 1.41747 5.80835 3.52459 3.77054C5.63171 1.73273 8.12699 0.713831 11.0104 0.713831C13.8938 0.713831 16.3753 1.7258 18.4546 3.74975C20.5895 5.80142 21.6569 8.2551 21.6569 11.1108C21.6569 12.0535 21.5044 13.0377 21.1995 14.0635ZM3.69094 13.1902C3.41369 13.2457 3.31665 13.412 3.39983 13.6893L4.89699 19.3036C4.98017 19.5809 5.14652 19.6779 5.39605 19.5947L5.81193 19.5116L5.06335 16.6836C4.98017 16.4063 5.07721 16.233 5.35446 16.1637C5.63171 16.0944 5.79806 16.1984 5.85352 16.4756L6.6021 19.3036L7.01798 19.1789C7.29523 19.0957 7.39227 18.9293 7.30909 18.6798L5.81193 13.0654C5.72875 12.7882 5.5624 12.6911 5.31287 12.7743L3.69094 13.1902ZM3.98206 19.1373C3.12258 15.9489 2.69284 14.3408 2.69284 14.3131L1.48679 14.6458C1.23726 14.729 1.14022 14.8953 1.19567 15.1448L2.27696 19.1373C2.36013 19.4145 2.52648 19.5116 2.77601 19.4284L3.98206 19.1373ZM1.19567 11.5267C1.25112 12.2198 1.38975 12.9545 1.61155 13.7308L2.40172 13.5229C2.20764 12.8575 2.08288 12.1921 2.02743 11.5267H1.19567ZM19.1201 10.3206C19.1478 10.5702 19.2864 10.6949 19.5359 10.6949H20.8252C20.742 9.05914 20.2499 7.53425 19.3488 6.12026C18.4477 4.70627 17.2555 3.59033 15.7722 2.77243C14.2889 1.95454 12.7017 1.54559 11.0104 1.54559C9.73505 1.54559 8.50821 1.78819 7.32989 2.27338C6.15156 2.75857 5.12573 3.41011 4.25238 4.22801C3.37904 5.0459 2.67204 6.02322 2.1314 7.15996C1.59076 8.29669 1.27885 9.47502 1.19567 10.6949H2.4849C2.73442 10.6949 2.87305 10.5702 2.90077 10.3206C3.09485 8.32442 3.98206 6.64011 5.5624 5.26771C7.14274 3.89531 8.95875 3.20911 11.0104 3.20911C13.0621 3.20911 14.8781 3.89531 16.4584 5.26771C18.0388 6.64011 18.926 8.32442 19.1201 10.3206ZM20.8252 11.5267H19.9934C19.938 12.1921 19.8132 12.8575 19.6191 13.5229L20.4093 13.7308C20.6311 12.9545 20.7697 12.2198 20.8252 11.5267ZM17.1238 19.3036L18.621 13.6893C18.7042 13.412 18.6071 13.2457 18.3299 13.1902L16.708 12.7743C16.6802 12.7466 16.6525 12.7327 16.6248 12.7327C16.403 12.7327 16.2644 12.8436 16.2089 13.0654L14.7117 18.6798C14.6286 18.9293 14.7256 19.0957 15.0029 19.1789L15.4187 19.3036L16.1673 16.4756C16.2228 16.1984 16.3891 16.0944 16.6664 16.1637C16.9436 16.233 17.0407 16.4063 16.9575 16.6836L16.2089 19.5116L16.6248 19.5947C16.8743 19.6779 17.0407 19.5809 17.1238 19.3036ZM20.8252 15.1448C20.8806 14.8953 20.7836 14.729 20.534 14.6458C20.534 14.6458 20.132 14.5349 19.328 14.3131C19.328 14.3408 18.8983 15.9489 18.0388 19.1373L19.2448 19.4284C19.4943 19.5116 19.6607 19.4145 19.7439 19.1373L20.8252 15.1448Z" fill="black"/>
</svg>
