<svg width="48" height="60" viewBox="0 0 48 60" fill="none" xmlns="http://www.w3.org/2000/svg">
<path d="M47 13.9812V13.9816V34.5599C47 34.5599 47 34.5599 47 34.56C46.9996 38.0851 46.0674 41.5475 44.2978 44.5964C42.5281 47.6453 39.9839 50.1722 36.923 51.9212C36.923 51.9212 36.9229 51.9213 36.9229 51.9213L24.992 58.7367C24.6899 58.9092 24.348 59 24 59C23.652 59 23.3101 58.9092 23.008 58.7367L11.0771 51.9213C8.0153 50.1718 5.47054 47.6439 3.70082 44.5939C1.9311 41.5439 0.999339 38.0803 1 34.5541V34.554V13.9817C1 13.9816 1 13.9816 1 13.9816C1.00013 13.0034 1.28725 12.0467 1.82581 11.23C2.36436 10.4134 3.13068 9.77263 4.02986 9.38718C4.0299 9.38716 4.02994 9.38714 4.02997 9.38713L23.2119 1.16782L23.3508 1.10828C23.5594 1.0367 23.7788 1 24 1C24.2709 1 24.539 1.05504 24.788 1.16177L43.97 9.38412C44.8696 9.76974 45.6363 10.4109 46.1749 11.2281C46.7135 12.0452 47.0004 13.0025 47 13.9812ZM35.8281 26.8288L35.8342 26.8226L35.8403 26.8164C36.5689 26.062 36.9721 25.0516 36.963 24.0029C36.9539 22.9541 36.5332 21.9509 35.7915 21.2094C35.0499 20.4678 34.0466 20.0472 32.9979 20.038C31.9491 20.0289 30.9387 20.4321 30.1843 21.1606L30.1781 21.1667L30.1719 21.1728L21 30.344L17.8281 27.1724L17.8219 27.1662L17.8157 27.1602C17.0613 26.4316 16.0509 26.0285 15.0021 26.0376C13.9533 26.0467 12.9501 26.4673 12.2085 27.2089C11.4668 27.9505 11.0461 28.9537 11.037 30.0024C11.0279 31.0512 11.4311 32.0615 12.1597 32.8159L12.1658 32.8221L12.1719 32.8283L18.1719 38.8278L18.172 38.8279C18.9221 39.5778 19.9394 39.999 21 39.999C22.0606 39.999 23.0779 39.5778 23.828 38.8279L23.8281 38.8278L35.8281 26.8288Z" stroke="#6C757D" stroke-opacity="0.78" stroke-width="2"/>
</svg>
