<svg width="14" height="12" viewBox="0 0 14 12" fill="none" xmlns="http://www.w3.org/2000/svg">
<path d="M12.4192 4.2529L9.12176 3.77217L7.64797 0.78398C7.38391 0.251341 6.6188 0.244571 6.35248 0.78398L4.8787 3.77217L1.5813 4.2529C0.989985 4.33867 0.753006 5.06766 1.18182 5.4852L3.56741 7.80985L3.00318 11.0937C2.90162 11.6873 3.52679 12.1319 4.0504 11.8543L7.00023 10.3038L9.95005 11.8543C10.4737 12.1296 11.0988 11.6873 10.9973 11.0937L10.433 7.80985L12.8186 5.4852C13.2474 5.06766 13.0105 4.33867 12.4192 4.2529ZM9.27071 7.43068L9.80561 10.5543L7.00023 9.08051L4.19485 10.5543L4.72974 7.43068L2.45926 5.21888L5.59641 4.76297L7.00023 1.91922L8.40405 4.76297L11.5412 5.21888L9.27071 7.43068Z" fill="#F6BC3E"/>
</svg>
