<svg width="22" height="23" viewBox="0 0 22 23" fill="none" xmlns="http://www.w3.org/2000/svg">
<path d="M6.30059 20.4056C6.30059 20.4056 6.259 20.4507 6.17582 20.5408C6.09265 20.6309 5.92629 20.676 5.67677 20.676C5.42724 20.676 5.2193 20.5859 5.05295 20.4056C4.8866 20.2254 4.80342 20.0175 4.80342 19.7818C4.80342 19.5462 4.8866 19.3382 5.05295 19.158C5.2193 18.9778 5.42724 18.8877 5.67677 18.8877C5.92629 18.8877 6.13423 18.9778 6.30059 19.158C6.46694 19.3382 6.55011 19.5462 6.55011 19.7818C6.55011 20.0175 6.46694 20.2254 6.30059 20.4056ZM8.79586 6.91037C8.87903 6.91037 8.95528 6.93116 9.02459 6.97275C9.09391 7.01434 9.14936 7.06979 9.19094 7.1391C9.23253 7.20841 9.25333 7.28466 9.25333 7.36783C9.25333 7.47873 9.21174 7.5827 9.12856 7.67974C9.04539 7.77678 8.94142 7.8253 8.81665 7.8253C8.69189 7.8253 8.58099 7.77678 8.48395 7.67974C8.38691 7.5827 8.33839 7.47873 8.33839 7.36783C8.33839 7.25693 8.37998 7.15296 8.46316 7.05592C8.54633 6.95889 8.65723 6.91037 8.79586 6.91037ZM6.55011 6.91037C6.68874 6.91037 6.79964 6.95889 6.88282 7.05592C6.96599 7.15296 7.00758 7.25693 7.00758 7.36783C7.00758 7.47873 6.96599 7.5827 6.88282 7.67974C6.79964 7.77678 6.68874 7.8253 6.55011 7.8253H4.80342C4.66479 7.8253 4.55389 7.77678 4.47072 7.67974C4.38754 7.5827 4.34595 7.47873 4.34595 7.36783C4.34595 7.25693 4.38754 7.15296 4.47072 7.05592C4.55389 6.95889 4.66479 6.91037 4.80342 6.91037H6.55011ZM13.0378 20.4056C13.0378 20.4056 12.9962 20.3606 12.9131 20.2705C12.8299 20.1804 12.7883 20.0175 12.7883 19.7818C12.7883 19.5462 12.8715 19.3382 13.0378 19.158C13.2042 18.9778 13.4121 18.8877 13.6616 18.8877C13.9112 18.8877 14.1191 18.9778 14.2855 19.158C14.4518 19.3382 14.535 19.5462 14.535 19.7818C14.535 20.0175 14.4518 20.2254 14.2855 20.4056C14.1191 20.5859 13.9112 20.676 13.6616 20.676C13.4121 20.676 13.2042 20.5859 13.0378 20.4056ZM19.4424 0.71377C20.0523 0.71377 20.5722 0.92864 21.0019 1.35838C21.4317 1.78812 21.6465 2.30797 21.6465 2.91793V19.8026C21.6465 20.4126 21.4317 20.9324 21.0019 21.3622C20.5722 21.7919 20.0523 22.0068 19.4424 22.0068H11.8734C11.7625 22.0068 11.6654 21.9652 11.5822 21.882C11.4991 21.7988 11.4575 21.6949 11.4575 21.5701C11.4575 21.4453 11.4991 21.3414 11.5822 21.2582C11.6654 21.175 11.7625 21.1334 11.8734 21.1334H19.4424C19.8028 21.1334 20.1147 21.0017 20.3781 20.7383C20.6415 20.475 20.7732 20.163 20.7732 19.8026V2.91793C20.7732 2.5575 20.6415 2.24559 20.3781 1.9822C20.1147 1.71881 19.8028 1.58712 19.4424 1.58712H7.88093C7.5205 1.58712 7.20859 1.71881 6.9452 1.9822C6.68181 2.24559 6.55011 2.5575 6.55011 2.91793V3.83286C6.55011 3.94376 6.50852 4.0408 6.42535 4.12398C6.34217 4.20715 6.2382 4.24874 6.11344 4.24874C5.98868 4.24874 5.88471 4.20715 5.80153 4.12398C5.71835 4.0408 5.67677 3.94376 5.67677 3.83286V2.91793C5.67677 2.30797 5.89164 1.78812 6.32138 1.35838C6.75112 0.92864 7.27097 0.71377 7.88093 0.71377H19.4424ZM8.79586 5.16368C9.40582 5.16368 9.92566 5.37855 10.3554 5.80829C10.7851 6.23803 11 6.75788 11 7.36783V19.8026C11 20.4126 10.7851 20.9324 10.3554 21.3622C9.92566 21.7919 9.40582 22.0068 8.79586 22.0068H2.55767C1.94772 22.0068 1.42787 21.7919 0.998128 21.3622C0.568386 20.9324 0.353516 20.4126 0.353516 19.8026V7.36783C0.353516 6.75788 0.568386 6.23803 0.998128 5.80829C1.42787 5.37855 1.94772 5.16368 2.55767 5.16368H8.79586ZM10.1267 19.8026V18.4718H1.22686V19.8026C1.22686 20.163 1.35856 20.475 1.62195 20.7383C1.88534 21.0017 2.19725 21.1334 2.55767 21.1334H8.79586C9.15629 21.1334 9.4682 21.0017 9.73159 20.7383C9.99498 20.475 10.1267 20.163 10.1267 19.8026ZM10.1267 17.5569V7.36783C10.1267 7.00741 9.99498 6.6955 9.73159 6.43211C9.4682 6.16872 9.15629 6.03702 8.79586 6.03702H2.55767C2.19725 6.03702 1.88534 6.16872 1.62195 6.43211C1.35856 6.6955 1.22686 7.00741 1.22686 7.36783V17.5569H10.1267ZM19.8582 18.0143C19.8582 18.1252 19.8167 18.2292 19.7335 18.3262C19.6503 18.4233 19.5533 18.4718 19.4424 18.4718H12.3308C12.2199 18.4718 12.116 18.4233 12.0189 18.3262C11.9219 18.2292 11.8734 18.1252 11.8734 18.0143C11.8734 17.9034 11.9219 17.7995 12.0189 17.7024C12.116 17.6054 12.2199 17.5569 12.3308 17.5569H18.9849V3.37539H8.33839V3.83286C8.33839 3.94376 8.2968 4.0408 8.21363 4.12398C8.13045 4.20715 8.02648 4.24874 7.90172 4.24874C7.77696 4.24874 7.67299 4.20715 7.58981 4.12398C7.50663 4.0408 7.46505 3.94376 7.46505 3.83286V2.91793C7.46505 2.80703 7.50663 2.70999 7.58981 2.62681C7.67299 2.54364 7.77002 2.50205 7.88093 2.50205H19.4424C19.5533 2.50205 19.6503 2.54364 19.7335 2.62681C19.8167 2.70999 19.8582 2.80703 19.8582 2.91793V18.0143Z" fill="black"/>
</svg>
