<svg width="20" height="18" viewBox="0 0 20 18" fill="none" xmlns="http://www.w3.org/2000/svg">
<path d="M17.9441 4.99645C17.9568 5.1741 17.9568 5.3518 17.9568 5.52945C17.9568 10.9482 13.8325 17.1919 6.29441 17.1919C3.97207 17.1919 1.81473 16.5193 0 15.3518C0.329961 15.3898 0.647187 15.4025 0.989844 15.4025C2.90605 15.4025 4.67004 14.7554 6.07867 13.6513C4.27664 13.6132 2.76648 12.433 2.24617 10.8086C2.5 10.8467 2.75379 10.8721 3.02031 10.8721C3.38832 10.8721 3.75637 10.8213 4.09898 10.7325C2.22082 10.3518 0.812148 8.70203 0.812148 6.70965V6.65891C1.35781 6.96348 1.99238 7.15383 2.66492 7.17918C1.56086 6.44312 0.837539 5.1868 0.837539 3.76547C0.837539 3.00406 1.04055 2.30609 1.3959 1.69695C3.41367 4.18426 6.44668 5.80859 9.84766 5.98629C9.78422 5.68172 9.74613 5.36449 9.74613 5.04723C9.74613 2.78832 11.5736 0.948242 13.8451 0.948242C15.0253 0.948242 16.0913 1.44316 16.84 2.24266C17.7664 2.065 18.6547 1.72234 19.4416 1.25281C19.137 2.20461 18.4898 3.0041 17.6395 3.51168C18.4644 3.42289 19.2639 3.19441 19.9999 2.87719C19.4416 3.68934 18.7436 4.41266 17.9441 4.99645Z" fill="black"/>
</svg>
