<svg width="22" height="17" viewBox="0 0 22 17" fill="none" xmlns="http://www.w3.org/2000/svg">
<path d="M20.9395 2.5796C21.4109 3.05093 21.6465 3.61929 21.6465 4.2847V14.349C21.6465 14.9867 21.4109 15.5412 20.9395 16.0125C20.4959 16.4838 19.9414 16.7195 19.276 16.7195H2.72403C2.08634 16.7195 1.53184 16.4838 1.06051 16.0125C0.58918 15.5689 0.353516 15.0144 0.353516 14.349V4.2847C0.353516 3.61929 0.58918 3.05093 1.06051 2.5796C1.50411 2.10827 2.05862 1.8726 2.72403 1.8726H6.09265V1.83101C6.09265 1.33196 6.27286 0.902218 6.63329 0.54179C6.99372 0.18136 7.43732 0.00114632 7.9641 0.00114632H14.0359C14.535 0.00114632 14.9786 0.18136 15.3667 0.54179C15.7272 0.874493 15.9074 1.30423 15.9074 1.83101V1.8726H19.276C19.9414 1.8726 20.4959 2.10827 20.9395 2.5796ZM20.6068 14.349V4.2847C20.6068 3.92427 20.4751 3.61236 20.2117 3.34897C19.9483 3.08558 19.6364 2.95389 19.276 2.95389H15.3667C15.2281 2.95389 15.1034 2.89844 14.9925 2.78754C14.8816 2.67663 14.8261 2.55187 14.8261 2.41324V1.83101C14.8261 1.60921 14.7499 1.42207 14.5974 1.26958C14.4449 1.11709 14.2577 1.04084 14.0359 1.04084H7.9641C7.7423 1.04084 7.56209 1.11709 7.42346 1.26958C7.28483 1.42207 7.21552 1.60921 7.21552 1.83101V2.41324C7.21552 2.55187 7.16007 2.67663 7.04917 2.78754C6.93827 2.89844 6.79964 2.95389 6.63329 2.95389H2.72403C2.3636 2.95389 2.05862 3.08558 1.80909 3.34897C1.55956 3.61236 1.4348 3.92427 1.4348 4.2847V14.349C1.4348 14.7094 1.55956 15.0213 1.80909 15.2847C2.05862 15.5481 2.3636 15.6798 2.72403 15.6798H19.276C19.6364 15.6798 19.9414 15.5481 20.1909 15.2847C20.4405 15.0213 20.5652 14.7094 20.5652 14.349H20.6068ZM7.46505 5.78186C7.46505 5.78186 7.70764 5.53927 8.19283 5.05408C8.67803 4.56888 9.61376 4.32629 11 4.32629C12.3863 4.32629 13.5646 4.81148 14.535 5.78186C15.5054 6.75225 15.9906 7.93057 15.9906 9.31684C15.9906 10.7031 15.5054 11.8814 14.535 12.8518C13.5646 13.8222 12.3863 14.3074 11 14.3074C9.61376 14.3074 8.43543 13.8222 7.46505 12.8518C6.49466 11.8814 6.00947 10.7031 6.00947 9.31684C6.00947 7.93057 6.49466 6.75225 7.46505 5.78186ZM13.7448 12.1032C14.5211 11.3269 14.8954 10.3981 14.8677 9.31684C14.8677 8.23555 14.4934 7.32062 13.7448 6.57203C12.9685 5.82345 12.0536 5.44916 11 5.44916C9.91873 5.44916 9.0038 5.82345 8.25522 6.57203C7.50663 7.34834 7.13234 8.26328 7.13234 9.31684C7.13234 10.3981 7.50663 11.3269 8.25522 12.1032C9.03152 12.8518 9.94646 13.2261 11 13.2261C12.0536 13.2261 12.9685 12.8518 13.7448 12.1032ZM17.1966 5.3244C17.1966 5.04714 17.2937 4.81148 17.4877 4.6174C17.6818 4.42333 17.9175 4.32629 18.1947 4.32629C18.472 4.32629 18.7076 4.42333 18.9017 4.6174C19.0958 4.81148 19.1928 5.04021 19.1928 5.3036C19.1928 5.56699 19.0958 5.79573 18.9017 5.9898C18.7076 6.18388 18.472 6.28092 18.1947 6.28092C18.0284 6.28092 17.869 6.23933 17.7165 6.15616C17.564 6.07298 17.4392 5.95515 17.3422 5.80266C17.2451 5.65017 17.1966 5.49075 17.1966 5.3244Z" fill="black"/>
</svg>
