<svg width="13" height="12" viewBox="0 0 13 12" fill="none" xmlns="http://www.w3.org/2000/svg">
<path d="M11.8791 4.02817L8.58172 3.54744L7.10793 0.559249C6.84387 0.0266099 6.07876 0.0198391 5.81245 0.559249L4.33866 3.54744L1.04127 4.02817C0.449946 4.11394 0.212966 4.84293 0.641786 5.26046L3.02738 7.58512L2.46314 10.869C2.36158 11.4625 2.98675 11.9072 3.51036 11.6296L6.46019 10.079L9.41002 11.6296C9.93363 11.9049 10.5588 11.4625 10.4572 10.869L9.893 7.58512L12.2786 5.26046C12.7074 4.84293 12.4704 4.11394 11.8791 4.02817ZM8.73067 7.20595L9.26557 10.3296L6.46019 8.85578L3.65481 10.3296L4.1897 7.20595L1.91922 4.99414L5.05637 4.53824L6.46019 1.69449L7.86401 4.53824L11.0012 4.99414L8.73067 7.20595Z" fill="#F6BC3E"/>
</svg>
