<svg width="16" height="16" viewBox="0 0 16 16" fill="none" xmlns="http://www.w3.org/2000/svg">
<path d="M8 8.05499C8.99456 8.05499 9.94839 7.6599 10.6517 6.95664C11.3549 6.25338 11.75 5.29955 11.75 4.30499C11.75 3.31043 11.3549 2.3566 10.6517 1.65334C9.94839 0.950081 8.99456 0.554993 8 0.554993C7.00544 0.554993 6.05161 0.950081 5.34835 1.65334C4.64509 2.3566 4.25 3.31043 4.25 4.30499C4.25 5.29955 4.64509 6.25338 5.34835 6.95664C6.05161 7.6599 7.00544 8.05499 8 8.05499ZM10.5 4.30499C10.5 4.96803 10.2366 5.60392 9.76777 6.07276C9.29893 6.5416 8.66304 6.80499 8 6.80499C7.33696 6.80499 6.70107 6.5416 6.23223 6.07276C5.76339 5.60392 5.5 4.96803 5.5 4.30499C5.5 3.64195 5.76339 3.00607 6.23223 2.53723C6.70107 2.06838 7.33696 1.80499 8 1.80499C8.66304 1.80499 9.29893 2.06838 9.76777 2.53723C10.2366 3.00607 10.5 3.64195 10.5 4.30499ZM15.5 14.305C15.5 15.555 14.25 15.555 14.25 15.555H1.75C1.75 15.555 0.5 15.555 0.5 14.305C0.5 13.055 1.75 9.30499 8 9.30499C14.25 9.30499 15.5 13.055 15.5 14.305ZM14.25 14.3C14.2487 13.9925 14.0575 13.0675 13.21 12.22C12.395 11.405 10.8612 10.555 8 10.555C5.1375 10.555 3.605 11.405 2.79 12.22C1.9425 13.0675 1.7525 13.9925 1.75 14.3H14.25Z" fill="black"/>
</svg>
