<svg width="13" height="12" viewBox="0 0 13 12" fill="none" xmlns="http://www.w3.org/2000/svg">
<path d="M11.9192 4.2529L8.62176 3.77217L7.14797 0.78398C6.88391 0.251341 6.1188 0.244571 5.85248 0.78398L4.3787 3.77217L1.0813 4.2529C0.489985 4.33867 0.253006 5.06766 0.681825 5.4852L3.06741 7.80985L2.50318 11.0937C2.40162 11.6873 3.02679 12.1319 3.5504 11.8543L6.50023 10.3038L9.45005 11.8543C9.97367 12.1296 10.5988 11.6873 10.4973 11.0937L9.93304 7.80985L12.3186 5.4852C12.7474 5.06766 12.5105 4.33867 11.9192 4.2529ZM8.77071 7.43068L9.30561 10.5543L6.50023 9.08051L3.69485 10.5543L4.22974 7.43068L1.95926 5.21888L5.09641 4.76297L6.50023 1.91922L7.90405 4.76297L11.0412 5.21888L8.77071 7.43068Z" fill="#F6BC3E"/>
</svg>
