<svg width="13" height="13" viewBox="0 0 13 13" fill="none" xmlns="http://www.w3.org/2000/svg">
<path d="M11.9189 4.36802L8.62151 3.88729L7.14773 0.899093C6.88366 0.366454 6.11856 0.359683 5.85224 0.899093L4.37846 3.88729L1.08106 4.36802C0.489741 4.45378 0.252761 5.18277 0.681581 5.60031L3.06717 7.92496L2.50293 11.2088C2.40137 11.8024 3.02655 12.247 3.55016 11.9694L6.49998 10.4189L9.44981 11.9694C9.97342 12.2448 10.5986 11.8024 10.497 11.2088L9.9328 7.92496L12.3184 5.60031C12.7472 5.18277 12.5102 4.45378 11.9189 4.36802ZM8.77047 7.54579L9.30537 10.6694L6.49998 9.19562L3.6946 10.6694L4.2295 7.54579L1.95901 5.33399L5.09616 4.87809L6.49998 2.03434L7.9038 4.87809L11.041 5.33399L8.77047 7.54579Z" fill="#F6BC3E"/>
</svg>
