<svg width="13" height="13" viewBox="0 0 13 13" fill="none" xmlns="http://www.w3.org/2000/svg">
<path d="M11.8991 4.69809L8.60174 4.21737L7.12795 1.22917C6.86389 0.696532 6.09878 0.689761 5.83246 1.22917L4.35868 4.21737L1.06128 4.69809C0.469965 4.78386 0.232986 5.51285 0.661805 5.93039L3.0474 8.25504L2.48316 11.5389C2.3816 12.1325 3.00677 12.5771 3.53038 12.2995L6.48021 10.749L9.43003 12.2995C9.95365 12.5748 10.5788 12.1325 10.4773 11.5389L9.91302 8.25504L12.2986 5.93039C12.7274 5.51285 12.4905 4.78386 11.8991 4.69809ZM8.75069 7.87587L9.28559 10.9995L6.48021 9.5257L3.67483 10.9995L4.20972 7.87587L1.93924 5.66407L5.07639 5.20816L6.48021 2.36441L7.88403 5.20816L11.0212 5.66407L8.75069 7.87587Z" fill="#F6BC3E"/>
</svg>
