<svg width="18" height="16" viewBox="0 0 18 16" fill="none" xmlns="http://www.w3.org/2000/svg">
<path d="M17.0273 3.59407C16.7655 2.98789 16.3881 2.43858 15.916 1.97688C15.4436 1.51381 14.8866 1.14581 14.2754 0.892897C13.6416 0.629602 12.9617 0.494833 12.2754 0.496413C11.3125 0.496413 10.373 0.760085 9.55664 1.25813C9.36133 1.37727 9.17578 1.50813 9 1.65071C8.82422 1.50813 8.63867 1.37727 8.44336 1.25813C7.62695 0.760085 6.6875 0.496413 5.72461 0.496413C5.03125 0.496413 4.35938 0.629225 3.72461 0.892897C3.11133 1.1468 2.55859 1.51204 2.08398 1.97688C1.61132 2.43806 1.23375 2.9875 0.972656 3.59407C0.701172 4.22493 0.5625 4.89485 0.5625 5.5843C0.5625 6.23469 0.695313 6.91243 0.958984 7.60188C1.17969 8.17805 1.49609 8.77571 1.90039 9.37922C2.54102 10.3343 3.42188 11.3304 4.51562 12.3402C6.32812 14.014 8.12305 15.1702 8.19922 15.2171L8.66211 15.514C8.86719 15.6449 9.13086 15.6449 9.33594 15.514L9.79883 15.2171C9.875 15.1683 11.668 14.014 13.4824 12.3402C14.5762 11.3304 15.457 10.3343 16.0977 9.37922C16.502 8.77571 16.8203 8.17805 17.0391 7.60188C17.3027 6.91243 17.4355 6.23469 17.4355 5.5843C17.4375 4.89485 17.2988 4.22493 17.0273 3.59407ZM9 13.9691C9 13.9691 2.04688 9.51399 2.04688 5.5843C2.04688 3.59407 3.69336 1.98079 5.72461 1.98079C7.15234 1.98079 8.39062 2.77766 9 3.94173C9.60938 2.77766 10.8477 1.98079 12.2754 1.98079C14.3066 1.98079 15.9531 3.59407 15.9531 5.5843C15.9531 9.51399 9 13.9691 9 13.9691Z" fill="black"/>
</svg>
