<svg width="13" height="8" viewBox="0 0 13 8" fill="none" xmlns="http://www.w3.org/2000/svg">
<path d="M0.629883 1.29883C0.629883 1.18945 0.668945 1.0957 0.74707 1.01758C0.825195 0.939453 0.918945 0.900391 1.02832 0.900391C1.1377 0.900391 1.23145 0.939453 1.30957 1.01758L6.60645 6.31445L11.8213 1.09961C11.8994 1.02148 11.9932 0.982422 12.1025 0.982422C12.2119 0.982422 12.3057 1.02148 12.3838 1.09961C12.4619 1.17773 12.501 1.27148 12.501 1.38086C12.501 1.49023 12.4619 1.58398 12.3838 1.66211L6.8877 7.1582C6.80957 7.23633 6.71582 7.27539 6.60645 7.27539C6.49707 7.27539 6.40332 7.23633 6.3252 7.1582L0.74707 1.5918C0.731445 1.57617 0.717773 1.55859 0.706055 1.53906C0.694336 1.51953 0.68457 1.5 0.676758 1.48047C0.668945 1.46094 0.661133 1.44141 0.65332 1.42188C0.645508 1.40234 0.639648 1.38281 0.635742 1.36328C0.631836 1.34375 0.629883 1.32227 0.629883 1.29883Z" fill="#848484"/>
</svg>
