<svg width="17" height="21" viewBox="0 0 17 21" fill="none" xmlns="http://www.w3.org/2000/svg">
<path d="M16.3649 5.53608L16.9887 19.3433C16.9887 19.4264 16.961 19.5096 16.9055 19.5928L16.2401 20.2582C16.1569 20.3136 16.0737 20.3414 15.9906 20.3414H1.35163C1.26845 20.3414 1.18527 20.3136 1.1021 20.2582L0.436691 19.5928C0.381241 19.5096 0.353516 19.4264 0.353516 19.3433L0.977334 5.53608C1.00506 5.25882 1.10903 4.96771 1.28924 4.66273C1.46946 4.35775 1.67047 4.12209 1.89227 3.95574L4.67866 2.16746C4.73411 1.7793 4.90739 1.41194 5.19851 1.06538C5.48962 0.718811 5.82926 0.490078 6.21741 0.379177H6.259C6.28672 0.379177 6.31445 0.379177 6.34217 0.379177H11C11.0277 0.379177 11.0555 0.379177 11.0832 0.379177H11.1248C11.5129 0.490078 11.8526 0.718811 12.1437 1.06538C12.4348 1.41194 12.6081 1.7793 12.6635 2.16746L15.4499 3.95574C15.6717 4.12209 15.8727 4.35775 16.0529 4.66273C16.2332 4.96771 16.3371 5.25882 16.3649 5.53608ZM12.414 2.83286L10.5841 5.07861C10.501 5.18951 10.4178 5.27269 10.3346 5.32814V9.36216H9.66921V5.70243C9.50285 5.75788 9.32264 5.7856 9.12856 5.7856C9.10084 5.7856 9.05925 5.7856 9.0038 5.7856V18.3452H12.9962V9.40375L12.3308 7.49071L12.9962 7.24118L13.2458 8.11453L13.6616 6.28466L14.3271 6.45101L13.6616 9.40375V17.347H16.2401L15.6995 5.57767C15.6717 5.13406 15.4638 4.78749 15.0756 4.53797L12.414 2.83286ZM10.1267 1.70999L10.4594 1.04458H6.88282L7.21552 1.70999H10.1267ZM9.79397 2.3754H7.54822L8.6711 4.62114L9.79397 2.3754ZM11.1664 1.12776L9.17015 5.1202C9.53058 5.1202 9.83556 4.96771 10.0851 4.66273L11.9981 2.25063C11.9704 2.02883 11.8803 1.80703 11.7278 1.58523C11.5753 1.36342 11.3882 1.21094 11.1664 1.12776ZM6.17582 1.12776C5.95402 1.21094 5.76687 1.36342 5.61439 1.58523C5.4619 1.80703 5.37179 2.02883 5.34406 2.25063L7.25711 4.66273C7.50663 4.96771 7.81161 5.1202 8.17204 5.1202L6.17582 1.12776ZM1.64274 5.57767L1.1021 17.347H3.68055V9.40375L3.01514 6.45101L3.68055 6.28466L4.09643 8.11453L4.34595 7.24118L5.01136 7.49071L4.34595 9.40375V18.3452H8.33839V5.7856C8.28294 5.7856 8.24135 5.7856 8.21363 5.7856C8.01955 5.7856 7.83934 5.75788 7.67299 5.70243V9.36216H7.00758V5.32814C6.9244 5.27269 6.84123 5.18951 6.75805 5.07861L4.92818 2.83286L2.26656 4.53797C1.87841 4.78749 1.67047 5.13406 1.64274 5.57767ZM1.01892 19.2185L1.47639 19.676H3.93008L3.68055 18.761C3.68055 18.7333 3.68055 18.7056 3.68055 18.6779V18.0124H1.06051L1.01892 19.2185ZM4.42913 19.0106L4.59548 19.676H8.33839V19.0106H4.42913ZM9.0038 19.676H12.7467L12.9131 19.0106H9.0038V19.676ZM15.8658 19.676L16.3233 19.2185L16.2817 18.0124H13.6616V18.6779C13.6616 18.7056 13.6616 18.7333 13.6616 18.761L13.4121 19.676H15.8658ZM6.00947 17.3886L5.34406 17.3055L6.00947 13.313L6.67488 13.3962L6.00947 17.3886ZM11.3327 17.3886L10.6673 13.3962L11.3327 13.313L11.9981 17.3055L11.3327 17.3886Z" fill="black"/>
</svg>
