<svg width="13" height="13" viewBox="0 0 13 13" fill="none" xmlns="http://www.w3.org/2000/svg">
<path d="M11.8791 4.69809L8.58172 4.21737L7.10793 1.22917C6.84387 0.696532 6.07876 0.689761 5.81245 1.22917L4.33866 4.21737L1.04127 4.69809C0.449946 4.78386 0.212966 5.51285 0.641786 5.93039L3.02738 8.25504L2.46314 11.5389C2.36158 12.1325 2.98675 12.5771 3.51036 12.2995L6.46019 10.749L9.41002 12.2995C9.93363 12.5748 10.5588 12.1325 10.4572 11.5389L9.893 8.25504L12.2786 5.93039C12.7074 5.51285 12.4704 4.78386 11.8791 4.69809ZM8.73067 7.87587L9.26557 10.9995L6.46019 9.5257L3.65481 10.9995L4.1897 7.87587L1.91922 5.66407L5.05637 5.20816L6.46019 2.36441L7.86401 5.20816L11.0012 5.66407L8.73067 7.87587Z" fill="#F6BC3E"/>
</svg>
