<svg width="10" height="16" viewBox="0 0 10 16" fill="none" xmlns="http://www.w3.org/2000/svg">
<path d="M1.25203 15.8333C1.11021 15.8333 0.986122 15.7826 0.879759 15.6813C0.773396 15.58 0.720215 15.4584 0.720215 15.3166C0.720215 15.1748 0.770864 15.0533 0.872162 14.952L7.81613 8.00799L0.978524 1.18558C0.917746 1.11467 0.874694 1.03363 0.84937 0.942464C0.824045 0.851296 0.824045 0.76266 0.84937 0.676558C0.874694 0.590454 0.917746 0.511949 0.978524 0.44104C1.07982 0.339742 1.20391 0.289093 1.35079 0.289093C1.49768 0.289093 1.62177 0.339742 1.72306 0.44104L8.91015 7.64332C8.9608 7.69397 8.99878 7.75221 9.02411 7.81806C9.04943 7.8839 9.06209 7.94974 9.06209 8.01559C9.06209 8.08143 9.04943 8.14474 9.02411 8.20552C8.99878 8.2663 8.9608 8.32201 8.91015 8.37266L1.6167 15.6813C1.56605 15.732 1.50781 15.7699 1.44196 15.7953C1.37612 15.8206 1.31281 15.8333 1.25203 15.8333Z" fill="#222222"/>
</svg>
