<svg width="14" height="12" viewBox="0 0 14 12" fill="none" xmlns="http://www.w3.org/2000/svg">
<path d="M12.4192 4.25303L9.12176 3.7723L7.64797 0.784102C7.38391 0.251463 6.6188 0.244693 6.35248 0.784102L4.8787 3.7723L1.5813 4.25303C0.989985 4.33879 0.753006 5.06778 1.18182 5.48532L3.56741 7.80997L3.00318 11.0938C2.90162 11.6874 3.52679 12.132 4.0504 11.8544L7.00023 10.3039L9.95005 11.8544C10.4737 12.1298 11.0988 11.6874 10.9973 11.0938L10.433 7.80997L12.8186 5.48532C13.2474 5.06778 13.0105 4.33879 12.4192 4.25303ZM9.27071 7.4308L9.80561 10.5544L7.00023 9.08063L4.19485 10.5544L4.72974 7.4308L2.45926 5.219L5.59641 4.7631L7.00023 1.91935L8.40405 4.7631L11.5412 5.219L9.27071 7.4308Z" fill="#F6BC3E"/>
</svg>
