<svg width="21" height="13" viewBox="0 0 21 13" fill="none" xmlns="http://www.w3.org/2000/svg">
<path d="M20.3781 10.2298C20.3781 10.2853 20.3781 10.3269 20.3781 10.3546C20.3781 10.4932 20.3226 10.5903 20.2117 10.6457C17.4947 12.0043 14.7776 12.6835 12.0605 12.6835C9.75931 12.6835 6.30752 12.5865 1.70512 12.3924C1.34469 12.3647 1.03972 12.2261 0.790189 11.9765C0.540661 11.727 0.415897 11.422 0.415897 11.0616V9.6892C0.332722 8.58019 0.332722 7.56822 0.415897 6.65329C0.443623 6.45921 0.471348 6.23741 0.499073 5.98788C0.582249 5.59973 0.679287 5.1284 0.790189 4.57389C0.845639 4.26891 0.90109 3.9778 0.95654 3.70055C1.06744 3.22922 1.16448 2.81334 1.24766 2.45291C1.38628 2.00931 1.51105 1.77364 1.62195 1.74591C1.64967 1.71819 1.6774 1.70433 1.70512 1.70433L6.52932 0.872569C6.61249 0.844844 6.69567 0.830981 6.77885 0.830981C7.02837 0.830981 7.27097 0.914157 7.50663 1.08051C7.7423 1.24686 7.91558 1.44094 8.02648 1.66274L8.983 4.15801C9.23253 4.29664 9.48206 4.43527 9.73159 4.57389C10.1752 4.82342 10.5911 5.05908 10.9792 5.28089C11.4228 5.53041 11.8248 5.75222 12.1853 5.94629C12.823 6.279 13.3775 6.54239 13.8488 6.73646C14.2369 6.87509 14.5558 6.97213 14.8053 7.02758C14.9162 7.0553 15.0133 7.08303 15.0964 7.11075C15.9282 7.24938 16.9817 7.40187 18.2571 7.56822C18.4235 7.59595 18.6106 7.66526 18.8185 7.77616C19.0265 7.88706 19.2067 8.01876 19.3592 8.17125C19.5117 8.32373 19.6295 8.48315 19.7127 8.64951L20.0038 9.19015C20.0038 9.21787 20.0177 9.23174 20.0454 9.23174L20.3781 10.2298ZM19.1305 8.94062C18.9918 8.66337 18.7839 8.46929 18.5066 8.35839C17.4808 8.82972 16.6768 9.09311 16.0945 9.14856C15.7618 9.17629 15.3321 9.19015 14.8053 9.19015C14.5281 9.19015 14.2231 9.17629 13.8904 9.14856L13.1418 10.0219C16.0252 9.96646 18.063 9.6892 19.2552 9.19015L19.1305 8.94062ZM7.56902 2.32815L1.58036 4.03325C1.55263 4.17188 1.52491 4.3105 1.49718 4.44913C2.60619 4.89273 3.54885 5.16999 4.32516 5.28089L7.69378 2.61926L7.56902 2.32815ZM5.32327 5.36406C6.09958 5.25316 7.0561 4.78183 8.19283 3.95007L7.94331 3.28467L5.32327 5.36406ZM1.0813 6.73646C0.998128 7.48504 0.984265 8.37225 1.03972 9.39809C2.31508 9.50899 3.61817 9.60603 4.94898 9.6892L4.15881 7.94251L1.12289 6.52852C1.09517 6.6117 1.0813 6.68101 1.0813 6.73646ZM5.69756 9.73079C7.33335 9.84169 8.74734 9.92487 9.93953 9.98032C10.5495 9.31491 10.9792 8.74654 11.2288 8.27522C10.4524 8.02569 9.67614 7.70685 8.89983 7.31869C8.12352 6.93054 7.37494 6.37603 6.65408 5.65518C6.04413 5.90471 5.51735 6.02947 5.07374 6.02947C4.85194 6.02947 4.61628 6.01561 4.36675 5.98788C3.56272 5.84925 2.55074 5.55814 1.33083 5.11453C1.27538 5.36406 1.23379 5.61359 1.20607 5.86312L4.5331 7.40187C4.61628 7.42959 4.67173 7.48504 4.69945 7.56822L5.69756 9.73079ZM12.0605 8.15045C11.8942 8.62178 11.4783 9.2456 10.8129 10.0219C11.2842 10.0219 11.7001 10.0219 12.0605 10.0219C12.0882 10.0219 12.116 10.0219 12.1437 10.0219C12.1714 10.0219 12.1991 10.0219 12.2269 10.0219L14.431 7.60981C14.2369 7.58208 14.029 7.51277 13.8072 7.40187L13.3081 7.94251L12.8091 7.44346L13.1418 7.15234C12.8923 7.04144 12.615 6.90281 12.31 6.73646C12.2546 7.29097 12.1714 7.7623 12.0605 8.15045ZM15.1796 7.77616L14.5142 8.52474C15.1519 8.52474 15.6509 8.51088 16.0114 8.48315C16.3441 8.45543 16.7738 8.33067 17.3006 8.10886C16.4688 7.99796 15.7618 7.88706 15.1796 7.77616ZM9.02459 4.94818C8.94142 4.89273 8.85824 4.83728 8.77507 4.78183C8.69189 4.72638 8.63644 4.69172 8.60871 4.67786C8.58099 4.664 8.56713 4.65707 8.56713 4.65707C8.5394 4.62934 8.51168 4.60162 8.48395 4.57389C8.0958 4.85114 7.69378 5.10067 7.2779 5.32247C7.91558 5.93243 8.56713 6.40376 9.23253 6.73646C9.95339 7.09689 10.702 7.40187 11.4783 7.6514C11.5892 7.26324 11.6585 6.86123 11.6862 6.44535C11.4367 6.30672 11.1733 6.15423 10.896 5.98788L10.3138 6.6117L9.81476 6.11264L10.2722 5.65518C10.0782 5.54428 9.85635 5.41951 9.60682 5.28089L8.983 5.94629L8.48395 5.44724L9.02459 4.94818ZM6.65408 1.49639L1.99624 2.32815C1.94079 2.54995 1.85761 2.86879 1.74671 3.28467L7.2779 1.70433C7.13927 1.5657 6.97292 1.49639 6.77885 1.49639C6.75112 1.49639 6.70953 1.49639 6.65408 1.49639ZM12.0605 12.0181C14.639 12.0181 17.162 11.4082 19.6295 10.1883L19.5047 9.81397C18.1462 10.3685 15.7618 10.6596 12.3516 10.6873C12.2684 10.6873 12.1714 10.6873 12.0605 10.6873C11.506 10.6873 10.8406 10.6735 10.0643 10.6457C8.7612 10.5903 7.22245 10.5071 5.44803 10.3962C4.00632 10.2853 2.55074 10.1744 1.0813 10.0635V11.0616C1.0813 11.228 1.14369 11.3804 1.26845 11.5191C1.39321 11.6577 1.53877 11.727 1.70512 11.727C6.30752 11.9211 9.75931 12.0181 12.0605 12.0181Z" fill="black"/>
</svg>
