<svg width="19" height="12" viewBox="0 0 19 12" fill="none" xmlns="http://www.w3.org/2000/svg">
<path d="M18.0938 1.68378H0.90625C0.476562 1.68378 0.125 1.33221 0.125 0.902527C0.125 0.472839 0.476562 0.121277 0.90625 0.121277H18.0938C18.5234 0.121277 18.875 0.472839 18.875 0.902527C18.875 1.33221 18.5234 1.68378 18.0938 1.68378ZM18.0938 6.37128H0.90625C0.476562 6.37128 0.125 6.01971 0.125 5.59003C0.125 5.16034 0.476562 4.80878 0.90625 4.80878H18.0938C18.5234 4.80878 18.875 5.16034 18.875 5.59003C18.875 6.01971 18.5234 6.37128 18.0938 6.37128ZM18.0938 11.0588H0.90625C0.476562 11.0588 0.125 10.7072 0.125 10.2775C0.125 9.84784 0.476562 9.49628 0.90625 9.49628H18.0938C18.5234 9.49628 18.875 9.84784 18.875 10.2775C18.875 10.7072 18.5234 11.0588 18.0938 11.0588Z" fill="white"/>
</svg>
