<svg width="8" height="16" viewBox="0 0 8 16" fill="none" xmlns="http://www.w3.org/2000/svg">
<path d="M6.80195 0.125H1.22617C0.582813 0.125 0.0625 0.638281 0.0625 1.28164V14.6762C0.0625 15.323 0.582813 15.875 1.22617 15.875H6.79844C7.4418 15.875 7.93398 15.323 7.93398 14.6762V1.28164C7.9375 0.638281 7.44531 0.125 6.80195 0.125ZM3.47266 0.933594H4.52734C4.60469 0.933594 4.66797 0.996875 4.66797 1.07422C4.66797 1.15156 4.60469 1.21484 4.52734 1.21484H3.47266C3.39531 1.21484 3.33203 1.15156 3.33203 1.07422C3.33203 0.996875 3.39531 0.933594 3.47266 0.933594ZM4.01758 15.3477C3.68008 15.3477 3.40586 15.0734 3.40586 14.7359C3.40586 14.3984 3.68008 14.1242 4.01758 14.1242C4.35508 14.1242 4.6293 14.3984 4.6293 14.7359C4.6293 15.0734 4.35508 15.3477 4.01758 15.3477ZM7.30469 13.625H0.695312C0.656641 13.625 0.625 13.5934 0.625 13.5547V1.98828C0.625 1.94961 0.656641 1.91797 0.695312 1.91797H7.30469C7.34336 1.91797 7.375 1.94961 7.375 1.98828V13.5547C7.375 13.5934 7.34336 13.625 7.30469 13.625Z" fill="black"/>
</svg>
