<svg width="20" height="14" viewBox="0 0 20 14" fill="none" xmlns="http://www.w3.org/2000/svg">
<path d="M19.0853 2.48954C18.8672 1.66836 18.2246 1.02162 17.4088 0.80214C15.9299 0.40332 10 0.40332 10 0.40332C10 0.40332 4.07019 0.40332 2.59133 0.80214C1.77546 1.02165 1.13289 1.66836 0.914805 2.48954C0.518555 3.97797 0.518555 7.08346 0.518555 7.08346C0.518555 7.08346 0.518555 10.1889 0.914805 11.6774C1.13289 12.4986 1.77546 13.1184 2.59133 13.3378C4.07019 13.7367 10 13.7367 10 13.7367C10 13.7367 15.9299 13.7367 17.4088 13.3378C18.2246 13.1184 18.8672 12.4986 19.0853 11.6774C19.4815 10.1889 19.4815 7.08346 19.4815 7.08346C19.4815 7.08346 19.4815 3.97797 19.0853 2.48954ZM8.06064 9.90301V4.26391L13.0169 7.08353L8.06064 9.90301Z" fill="black"/>
</svg>
