<svg width="14" height="23" viewBox="0 0 14 23" fill="none" xmlns="http://www.w3.org/2000/svg">
<path d="M13.5785 7.53419C13.6894 7.53419 13.7864 7.57577 13.8696 7.65895C13.9528 7.74213 13.9943 7.83916 13.9943 7.95006V14.5625C13.9943 15.3388 13.724 15.9904 13.1834 16.5172C12.6427 17.044 11.9981 17.3073 11.2495 17.3073H10.4594V18.8045C10.4594 18.9154 10.4178 19.0124 10.3346 19.0956C10.2514 19.1788 10.1544 19.2204 10.0435 19.2204H8.6711V21.5909C8.6711 21.7018 8.62951 21.7988 8.54633 21.882C8.46316 21.9652 8.36612 22.0068 8.25522 22.0068H6.09265C5.98174 22.0068 5.88471 21.9652 5.80153 21.882C5.71835 21.7988 5.67677 21.7018 5.67677 21.5909V19.2204H4.30437C4.19346 19.2204 4.09643 19.1788 4.01325 19.0956C3.93008 19.0124 3.88849 18.9154 3.88849 18.8045V17.3073H3.09832C2.34973 17.3073 1.70512 17.044 1.16448 16.5172C0.623837 15.9904 0.353516 15.3388 0.353516 14.5625V7.95006C0.353516 7.83916 0.395104 7.74213 0.478279 7.65895C0.561455 7.57577 0.658494 7.53419 0.769395 7.53419H2.26656V2.29411C2.26656 2.01686 2.33587 1.75347 2.4745 1.50394C2.61312 1.25441 2.8072 1.06034 3.05673 0.921709C3.30626 0.783083 3.56965 0.71377 3.8469 0.71377C4.2905 0.71377 4.67173 0.87319 4.99057 1.19203C5.30941 1.51087 5.46883 1.87823 5.46883 2.29411V7.53419H8.87903V2.29411C8.87903 1.87823 9.03846 1.51087 9.3573 1.19203C9.67614 0.87319 10.0504 0.71377 10.4802 0.71377C10.9099 0.71377 11.2842 0.87319 11.603 1.19203C11.9219 1.51087 12.0813 1.87823 12.0813 2.29411V7.53419H13.5785ZM9.75238 2.29411V7.53419H11.2495V2.29411C11.2495 2.18321 11.2149 2.06538 11.1456 1.94061C11.0763 1.81585 10.9792 1.71881 10.8545 1.6495C10.7297 1.58018 10.6119 1.54553 10.501 1.54553C10.2792 1.54553 10.0989 1.62177 9.96032 1.77426C9.82169 1.92675 9.75238 2.10003 9.75238 2.29411ZM3.09832 2.29411V7.53419H4.59548V2.29411C4.59548 2.18321 4.56776 2.06538 4.51231 1.94061C4.45686 1.81585 4.36675 1.71881 4.24198 1.6495C4.11722 1.58018 3.98553 1.54553 3.8469 1.54553C3.76372 1.54553 3.67362 1.56632 3.57658 1.60791C3.47954 1.6495 3.39636 1.70495 3.32705 1.77426C3.25774 1.84357 3.20229 1.92675 3.1607 2.02379C3.11911 2.12083 3.09832 2.21093 3.09832 2.29411ZM7.79775 21.175V19.2204H6.55011V21.175H7.79775ZM9.62762 18.3886V17.3073H4.72025V18.3886H9.62762ZM13.121 9.53041V8.36594H1.22686V9.53041H7.17393C7.28483 9.53041 7.38187 9.57199 7.46505 9.65517C7.54822 9.73834 7.58981 9.83538 7.58981 9.94628C7.58981 10.0295 7.56902 10.0988 7.52743 10.1542C7.48584 10.2097 7.43732 10.2582 7.38187 10.2998C7.32642 10.3414 7.25711 10.3622 7.17393 10.3622H1.22686V14.5625C1.22686 14.923 1.31004 15.2487 1.47639 15.5399C1.64274 15.831 1.87147 16.0597 2.16259 16.2261C2.4537 16.3924 2.76561 16.4756 3.09832 16.4756H11.2495C11.7763 16.4756 12.2199 16.2884 12.5804 15.9141C12.9408 15.5399 13.121 15.0893 13.121 14.5625V10.3622H10.7921C10.6812 10.3622 10.5841 10.3206 10.501 10.2374C10.4178 10.1542 10.3762 10.0572 10.3762 9.94628C10.3762 9.83538 10.4178 9.73834 10.501 9.65517C10.5841 9.57199 10.6812 9.53041 10.7921 9.53041H13.121ZM8.96221 10.3622C8.87903 10.3622 8.80279 10.3414 8.73348 10.2998C8.66416 10.2582 8.61565 10.2097 8.58792 10.1542C8.56019 10.0988 8.54633 10.0295 8.54633 9.94628C8.54633 9.83538 8.58792 9.73834 8.6711 9.65517C8.75427 9.57199 8.85131 9.53041 8.96221 9.53041H9.04539C9.18401 9.53041 9.29491 9.57199 9.37809 9.65517C9.46127 9.73834 9.50285 9.83538 9.50285 9.94628C9.50285 10.0295 9.48206 10.0988 9.44047 10.1542C9.39888 10.2097 9.34343 10.2582 9.27412 10.2998C9.20481 10.3414 9.12856 10.3622 9.04539 10.3622H8.96221Z" fill="black"/>
</svg>
