<svg width="20" height="13" viewBox="0 0 20 13" fill="none" xmlns="http://www.w3.org/2000/svg">
<path d="M12.0643 5.21032C12.1216 5.5132 12.1625 5.81607 12.1625 6.20895C12.1625 9.63873 9.86237 12.0698 6.3999 12.0698C3.08478 12.0698 0.399902 9.38498 0.399902 6.06982C0.399902 2.75467 3.08478 0.0698242 6.3999 0.0698242C8.02065 0.0698242 9.37125 0.659168 10.419 1.64145L8.79006 3.20489C8.34803 2.77923 7.57043 2.27992 6.3999 2.27992C4.35353 2.27992 2.68365 3.97432 2.68365 6.06982C2.68365 8.16532 4.35353 9.85973 6.3999 9.85973C8.77368 9.85973 9.66593 8.14895 9.80506 7.27307H6.3999V5.21029H12.0643V5.21032ZM17.8582 5.41148V3.66982H16.1082V5.41148H14.3666V7.16151H16.1082V8.90317H17.8582V7.16151H19.5999V5.41148H17.8582Z" fill="black"/>
</svg>
