<svg width="16" height="16" viewBox="0 0 16 16" fill="none" xmlns="http://www.w3.org/2000/svg">
<path d="M14.9434 6.37578C14.8027 6.23516 9.37813 0.701563 9.37813 0.701563C9.0125 0.328906 8.52383 0.125 8 0.125C7.47617 0.125 6.9875 0.328906 6.62188 0.705078C6.62188 0.705078 1.22188 6.20703 1.05664 6.3793C0.894922 6.54805 0.6875 6.89961 0.6875 7.29688V14.75C0.6875 15.3687 1.19375 15.875 1.8125 15.875H14.1875C14.8062 15.875 15.3125 15.3687 15.3125 14.75V7.26172C15.3125 6.85039 15.0805 6.51992 14.9434 6.37578ZM14.2613 7.86289L11.4102 10.8441C11.382 10.8723 11.382 10.9145 11.4102 10.9426L14.0574 13.7621C14.2367 13.9414 14.2367 14.2297 14.0574 14.409C13.9695 14.4969 13.85 14.5426 13.734 14.5426C13.618 14.5426 13.4984 14.4969 13.4105 14.409L8.10195 8.7418C8.0457 8.68203 7.95078 8.68203 7.89805 8.7418L2.59297 14.4055C2.50508 14.4934 2.38555 14.5391 2.26953 14.5391C2.15352 14.5391 2.03398 14.4934 1.94609 14.4055C1.7668 14.2262 1.7668 13.9379 1.94609 13.7586L4.59336 10.9391C4.61797 10.9109 4.61797 10.8687 4.59336 10.8406L1.73164 7.85938C1.39062 7.51133 1.64727 6.60078 2.29766 6.60078H13.7023C14.2824 6.59727 14.6023 7.51836 14.2613 7.86289Z" fill="black"/>
</svg>
