<svg width="16" height="16" viewBox="0 0 16 16" fill="none" xmlns="http://www.w3.org/2000/svg">
<path d="M14.9541 13.9941L10.7822 9.78314C11.5986 8.7597 12.0908 7.46283 12.0908 6.05267C12.0908 2.75189 9.41504 0.0761108 6.11035 0.0761108C2.80566 0.0761108 0.129883 2.7558 0.129883 6.05658C0.129883 9.35736 2.80566 12.0331 6.11035 12.0331C7.54004 12.0331 8.84863 11.5331 9.87988 10.6972L14.0244 14.8808C14.1494 15.0136 14.3213 15.08 14.4893 15.08C14.6494 15.08 14.8096 15.0214 14.9307 14.9042C15.1885 14.6581 15.1963 14.2519 14.9541 13.9941ZM6.11035 10.748C4.85645 10.748 3.67676 10.2597 2.79004 9.37299C1.90332 8.48627 1.41504 7.30658 1.41504 6.05658C1.41504 4.80267 1.90332 3.62299 2.79004 2.74017C3.67676 1.85345 4.85645 1.36517 6.11035 1.36517C7.36426 1.36517 8.54395 1.85345 9.43066 2.74017C10.3174 3.62689 10.8057 4.80658 10.8057 6.05658C10.8057 7.31049 10.3174 8.49017 9.43066 9.37299C8.54395 10.2597 7.36426 10.748 6.11035 10.748Z" fill="white"/>
</svg>
