<svg width="18" height="17" viewBox="0 0 18 17" fill="none" xmlns="http://www.w3.org/2000/svg">
<path d="M17.0254 11.764H5.39453L5.97852 10.5745L15.6816 10.5569C16.0098 10.5569 16.291 10.3226 16.3496 9.99835L17.6934 2.47687C17.7285 2.2796 17.6758 2.07648 17.5469 1.92218C17.4832 1.84624 17.4037 1.78507 17.314 1.74292C17.2243 1.70076 17.1265 1.67862 17.0273 1.67804L4.68359 1.63702L4.57812 1.14093C4.51172 0.824524 4.22656 0.594055 3.90234 0.594055H0.884766C0.701911 0.594055 0.526546 0.666694 0.397249 0.795991C0.267951 0.925289 0.195313 1.10065 0.195312 1.28351C0.195313 1.46636 0.267951 1.64173 0.397249 1.77103C0.526546 1.90032 0.701911 1.97296 0.884766 1.97296H3.34375L3.80469 4.16437L4.93945 9.65851L3.47852 12.0433C3.40265 12.1457 3.35695 12.2673 3.3466 12.3943C3.33624 12.5213 3.36164 12.6487 3.41992 12.762C3.53711 12.9944 3.77344 13.1409 4.03516 13.1409H5.26172C5.00023 13.4882 4.85899 13.9113 4.85938 14.346C4.85938 15.4515 5.75781 16.3499 6.86328 16.3499C7.96875 16.3499 8.86719 15.4515 8.86719 14.346C8.86719 13.9105 8.72266 13.4866 8.46484 13.1409H11.6113C11.3498 13.4882 11.2086 13.9113 11.209 14.346C11.209 15.4515 12.1074 16.3499 13.2129 16.3499C14.3184 16.3499 15.2168 15.4515 15.2168 14.346C15.2168 13.9105 15.0723 13.4866 14.8145 13.1409H17.0273C17.4062 13.1409 17.7168 12.8323 17.7168 12.4515C17.7157 12.2688 17.6423 12.094 17.5128 11.9652C17.3833 11.8364 17.2081 11.7641 17.0254 11.764ZM4.9707 2.9964L16.2168 3.03351L15.1152 9.20148L6.28125 9.2171L4.9707 2.9964ZM6.86328 14.9632C6.52344 14.9632 6.24609 14.6859 6.24609 14.346C6.24609 14.0062 6.52344 13.7288 6.86328 13.7288C7.20312 13.7288 7.48047 14.0062 7.48047 14.346C7.48047 14.5097 7.41544 14.6667 7.2997 14.7824C7.18395 14.8982 7.02697 14.9632 6.86328 14.9632ZM13.2129 14.9632C12.873 14.9632 12.5957 14.6859 12.5957 14.346C12.5957 14.0062 12.873 13.7288 13.2129 13.7288C13.5527 13.7288 13.8301 14.0062 13.8301 14.346C13.8301 14.5097 13.7651 14.6667 13.6493 14.7824C13.5336 14.8982 13.3766 14.9632 13.2129 14.9632Z" fill="black"/>
</svg>
