<svg width="15" height="21" viewBox="0 0 15 21" fill="none" xmlns="http://www.w3.org/2000/svg">
<path d="M6.30059 11.0673C6.30059 11.0673 6.25207 11.0187 6.15503 10.9217C6.05799 10.8247 6.00947 10.6375 6.00947 10.3603C6.00947 10.083 6.10651 9.84736 6.30059 9.65328C6.49466 9.4592 6.73033 9.36216 7.00758 9.36216C7.14621 9.36216 7.28483 9.38989 7.42346 9.44534L8.42157 8.44723C8.50474 8.39178 8.58792 8.36405 8.6711 8.36405C8.8929 8.36405 9.0038 8.47496 9.0038 8.69676C9.0038 8.77993 8.97607 8.86311 8.92062 8.94629L7.92251 9.94439C7.97796 10.083 8.00569 10.2216 8.00569 10.3603C8.00569 10.4989 7.97796 10.6375 7.92251 10.7762L9.91873 12.7724C9.97418 12.8555 10.0019 12.9387 10.0019 13.0219C10.0019 13.2437 9.89101 13.3546 9.66921 13.3546C9.58603 13.3546 9.50285 13.3269 9.41968 13.2714L7.42346 11.2752C7.28483 11.3307 7.14621 11.3584 7.00758 11.3584C6.73033 11.3584 6.49466 11.2613 6.30059 11.0673ZM7.00758 10.0276C7.00758 10.0276 6.95213 10.0276 6.84123 10.0276C6.73033 10.0276 6.67488 10.1385 6.67488 10.3603C6.67488 10.5821 6.78578 10.693 7.00758 10.693C7.22938 10.693 7.34028 10.5821 7.34028 10.3603C7.34028 10.1385 7.22938 10.0276 7.00758 10.0276ZM14.9925 11.1089C14.9925 11.497 14.7984 11.6911 14.4102 11.6911H13.5369C13.426 12.1624 13.225 12.7031 12.9339 13.313C12.6427 13.923 12.3308 14.4082 11.9981 14.7686L11.1248 17.6382C11.0971 17.7213 11.0485 17.8114 10.9792 17.9085C10.9099 18.0055 10.8337 18.0818 10.7505 18.1372C10.6673 18.1927 10.5772 18.2412 10.4802 18.2828C10.3831 18.3244 10.2792 18.3452 10.1683 18.3452H10.0019L9.71079 19.8007C9.65534 20.1612 9.43354 20.3414 9.04539 20.3414H4.96977C4.58162 20.3414 4.35982 20.1612 4.30437 19.8007L4.01325 18.3452H3.8469C3.6251 18.3452 3.42409 18.2758 3.24387 18.1372C3.06366 17.9986 2.94583 17.8322 2.89038 17.6382L2.01703 14.7686C1.57343 14.2418 1.18527 13.5487 0.85257 12.6892C0.519867 11.8297 0.353516 11.0534 0.353516 10.3603C0.353516 9.66714 0.519867 8.89083 0.85257 8.03135C1.18527 7.17187 1.57343 6.47874 2.01703 5.95196L2.89038 3.08239C2.94583 2.88831 3.06366 2.72196 3.24387 2.58334C3.42409 2.44471 3.6251 2.3754 3.8469 2.3754H4.01325L4.30437 0.919821C4.35982 0.559391 4.58162 0.379177 4.96977 0.379177H9.04539C9.43354 0.379177 9.65534 0.559391 9.71079 0.919821L10.0019 2.3754H10.1683C10.3901 2.3754 10.5911 2.44471 10.7713 2.58334C10.9515 2.72196 11.0693 2.88831 11.1248 3.08239L11.9981 5.95196C12.3308 6.31238 12.6427 6.79758 12.9339 7.40753C13.225 8.01749 13.426 8.55813 13.5369 9.02946H14.4102C14.7984 9.02946 14.9925 9.22354 14.9925 9.61169V11.1089ZM10.1683 3.0408H10.1267L10.4178 4.66273C10.6396 4.77363 10.8475 4.91226 11.0416 5.07861L10.501 3.29033C10.4455 3.12398 10.3346 3.0408 10.1683 3.0408ZM4.96977 1.04458L4.34595 4.24685C5.20544 3.88642 6.09265 3.70621 7.00758 3.70621C7.92251 3.70621 8.80972 3.88642 9.66921 4.24685L9.04539 1.04458H4.96977ZM3.5142 3.29033L2.97355 5.07861C3.16763 4.91226 3.37557 4.77363 3.59737 4.66273L3.88849 3.0408H3.8469C3.68055 3.0408 3.56965 3.12398 3.5142 3.29033ZM11.2495 6.11831C11.2495 6.11831 10.9584 5.82719 10.3762 5.24496C9.79397 4.66273 8.6711 4.37162 7.00758 4.37162C5.34406 4.37162 3.93008 4.95385 2.76561 6.11831C1.60115 7.28277 1.01892 8.69676 1.01892 10.3603C1.01892 12.0238 1.60115 13.4378 2.76561 14.6022C3.93008 15.7667 5.34406 16.3489 7.00758 16.3489C8.6711 16.3489 10.0851 15.7667 11.2495 14.6022C12.414 13.4378 12.9962 12.0238 12.9962 10.3603C12.9962 8.69676 12.414 7.28277 11.2495 6.11831ZM3.8469 17.6797H3.88849L3.59737 16.0578C3.37557 15.9469 3.16763 15.8083 2.97355 15.6419L3.5142 17.4302C3.56965 17.5966 3.68055 17.6797 3.8469 17.6797ZM9.04539 19.676L9.66921 16.4737C8.80972 16.8341 7.92251 17.0143 7.00758 17.0143C6.09265 17.0143 5.20544 16.8341 4.34595 16.4737L4.96977 19.676H9.04539ZM10.501 17.4302L11.0416 15.6419C10.8475 15.8083 10.6396 15.9469 10.4178 16.0578L10.1267 17.6797H10.1683C10.3346 17.6797 10.4455 17.5966 10.501 17.4302ZM14.3271 11.0257V9.69487H13.6201C13.6478 9.91667 13.6616 10.1385 13.6616 10.3603C13.6616 10.5821 13.6478 10.8039 13.6201 11.0257H14.3271ZM7.00758 5.70243C5.78767 5.70243 4.72718 6.12524 3.82611 6.97086C2.92503 7.81648 2.43291 8.84925 2.34973 10.0692L1.68433 9.98598C1.79523 8.59972 2.3636 7.42833 3.38943 6.4718C4.41527 5.51528 5.62132 5.03702 7.00758 5.03702V5.70243ZM2.39132 10.9841C2.44677 11.3445 2.52995 11.6911 2.64085 12.0238L2.05862 12.2733C1.89227 11.8852 1.78137 11.4831 1.72592 11.0673L2.39132 10.9841ZM3.55578 13.4794L3.05673 13.8952C2.75175 13.5903 2.50222 13.2437 2.30815 12.8555L2.89038 12.5228C3.05673 12.8555 3.27853 13.1744 3.55578 13.4794ZM3.47261 14.3111L3.88849 13.8121C4.19346 14.0893 4.51231 14.3111 4.84501 14.4775L4.51231 15.0597C4.12415 14.8656 3.77759 14.6161 3.47261 14.3111ZM5.09454 15.3092L5.34406 14.727C5.67677 14.8379 6.02333 14.9211 6.38376 14.9765L6.30059 15.6419C5.88471 15.5865 5.48269 15.4756 5.09454 15.3092ZM7.00758 15.0181C8.17204 15.0181 9.19094 14.63 10.0643 13.8537C10.9376 13.0773 11.4575 12.1208 11.6238 10.9841L12.2892 11.0673C12.1783 11.9268 11.8734 12.71 11.3743 13.417C10.8753 14.124 10.2445 14.6785 9.48206 15.0805C8.71961 15.4825 7.89479 15.6835 7.00758 15.6835V15.0181ZM11.6654 10.3603C11.6654 10.0553 11.6377 9.75032 11.5822 9.44534L12.2061 9.27899C12.2892 9.63942 12.3308 9.99985 12.3308 10.3603H11.6654ZM11.9565 8.44723L11.3743 8.69676C11.208 8.28088 11 7.90659 10.7505 7.57388L11.2495 7.158C11.5545 7.54616 11.7902 7.9759 11.9565 8.44723ZM10.5426 6.40942L10.1267 6.90848C9.82169 6.63123 9.50285 6.40942 9.17015 6.24307L9.50285 5.66084C9.89101 5.85492 10.2376 6.10445 10.5426 6.40942ZM8.79586 5.32814L8.54633 5.95196C8.24135 5.86878 7.93638 5.79947 7.6314 5.74402L7.71457 5.07861C8.075 5.13406 8.43543 5.21724 8.79586 5.32814Z" fill="black"/>
</svg>
