<svg width="10" height="16" viewBox="0 0 10 16" fill="none" xmlns="http://www.w3.org/2000/svg">
<path d="M8.1808 0.44104C8.2821 0.339742 8.40366 0.289093 8.54548 0.289093C8.68729 0.289093 8.80885 0.339742 8.91015 0.44104C8.95067 0.471429 8.98106 0.506884 9.00132 0.547402C9.02157 0.587921 9.03677 0.630973 9.0469 0.676558C9.05703 0.722141 9.06209 0.767725 9.06209 0.81331C9.06209 0.858893 9.05703 0.901945 9.0469 0.942464C9.03677 0.982984 9.02157 1.0235 9.00132 1.06402C8.98106 1.10454 8.95067 1.14506 8.91015 1.18558L1.98137 8.11435L8.81898 14.952C8.87976 15.0127 8.92281 15.0887 8.94813 15.1799C8.97346 15.271 8.97346 15.3622 8.94813 15.4534C8.92281 15.5446 8.87976 15.6205 8.81898 15.6813C8.71768 15.7826 8.59359 15.8333 8.44671 15.8333C8.29983 15.8333 8.17574 15.7826 8.07444 15.6813L0.872162 8.47903C0.770864 8.37773 0.720215 8.25617 0.720215 8.11435C0.720215 7.97254 0.770864 7.85098 0.872162 7.74968L8.1808 0.44104Z" fill="#222222"/>
</svg>
