<svg width="22" height="21" viewBox="0 0 22 21" fill="none" xmlns="http://www.w3.org/2000/svg">
<path d="M19.6087 0.713804C19.9691 0.713804 20.3088 0.803911 20.6276 0.984125C20.9465 1.16434 21.196 1.41387 21.3762 1.73271C21.5564 2.05155 21.6465 2.39118 21.6465 2.75161V13.9803C21.6465 14.5348 21.4455 15.0131 21.0435 15.4151C20.6415 15.8171 20.1632 16.0182 19.6087 16.0182H14.535L15.1588 18.056H16.3233C16.6282 18.056 16.8847 18.1599 17.0926 18.3679C17.3006 18.5758 17.4046 18.8253 17.4046 19.1164C17.4046 19.4076 17.3006 19.6571 17.0926 19.865C16.8847 20.073 16.6282 20.1769 16.3233 20.1769H5.67677C5.37179 20.1769 5.11533 20.073 4.90739 19.865C4.69945 19.6571 4.59548 19.4145 4.59548 19.1372C4.59548 18.9709 4.62321 18.8253 4.67866 18.7006C4.73411 18.5758 4.81035 18.4649 4.90739 18.3679C5.00443 18.2708 5.12226 18.1946 5.26089 18.1391C5.39951 18.0837 5.53814 18.056 5.67677 18.056H6.84123L7.46505 16.0182H2.39132C1.83682 16.0182 1.35856 15.8171 0.95654 15.4151C0.554524 15.0131 0.353516 14.5348 0.353516 13.9803V2.75161C0.353516 2.19711 0.554524 1.71885 0.95654 1.31683C1.35856 0.914812 1.83682 0.713804 2.39132 0.713804H4.34595C4.54003 0.713804 4.63707 0.817774 4.63707 1.02571C4.63707 1.23365 4.54003 1.33762 4.34595 1.33762H2.39132C2.00317 1.33762 1.67047 1.47625 1.39321 1.7535C1.11596 2.03075 0.977334 2.36346 0.977334 2.75161V13.9803C0.977334 14.3685 1.11596 14.7012 1.39321 14.9785C1.67047 15.2557 2.00317 15.3943 2.39132 15.3943H19.6087C19.9969 15.3943 20.3296 15.2557 20.6068 14.9785C20.8841 14.7012 21.0227 14.3685 21.0227 13.9803V2.75161C21.0227 2.36346 20.8841 2.03075 20.6068 1.7535C20.3296 1.47625 19.9969 1.33762 19.6087 1.33762H5.59359C5.39951 1.33762 5.30248 1.23365 5.30248 1.02571C5.30248 0.817774 5.39951 0.713804 5.59359 0.713804H19.6087ZM16.6144 19.4284C16.6144 19.4284 16.6352 19.4076 16.6768 19.366C16.7184 19.3244 16.7391 19.2412 16.7391 19.1164C16.7391 18.9917 16.6976 18.8877 16.6144 18.8045C16.5312 18.7214 16.4342 18.6798 16.3233 18.6798H5.67677C5.56587 18.6798 5.46883 18.7214 5.38565 18.8045C5.30248 18.8877 5.26089 18.9917 5.26089 19.1164C5.26089 19.2412 5.30248 19.3452 5.38565 19.4284C5.46883 19.5115 5.56587 19.5531 5.67677 19.5531H16.3233C16.4342 19.5531 16.5312 19.5115 16.6144 19.4284ZM14.4934 18.056L13.8696 16.0182H8.13045L7.50663 18.056H14.4934ZM19.9414 10.6949C19.9414 10.9167 19.8374 11.0276 19.6295 11.0276C19.4216 11.0276 19.3176 10.9167 19.3176 10.6949V3.04273H2.68244V12.7327H19.3176V11.9425C19.3176 11.7485 19.4216 11.6514 19.6295 11.6514C19.8374 11.6514 19.9414 11.7485 19.9414 11.9425V13.0654C19.9414 13.2595 19.8444 13.3565 19.6503 13.3565H2.34973C2.15566 13.3565 2.05862 13.2595 2.05862 13.0654V2.75161C2.05862 2.52981 2.16952 2.41891 2.39132 2.41891H19.6087C19.8305 2.41891 19.9414 2.52981 19.9414 2.75161V10.6949ZM11.2495 14.1467C11.3604 14.2853 11.3466 14.4239 11.208 14.5626C11.1248 14.6458 11.0139 14.6596 10.8753 14.6042C10.7366 14.5487 10.6673 14.4378 10.6673 14.2715C10.695 14.1328 10.7921 14.0497 10.9584 14.0219C11.0971 13.9942 11.1941 14.0358 11.2495 14.1467Z" fill="black"/>
</svg>
