<svg width="68" height="52" viewBox="0 0 68 52" fill="none" xmlns="http://www.w3.org/2000/svg">
<mask id="path-1-inside-1_83_3050" fill="white">
<path d="M52.5455 47.125C51.3158 47.125 50.1365 46.6114 49.2671 45.6971C48.3976 44.7829 47.9091 43.5429 47.9091 42.25C47.9091 40.9571 48.3976 39.7171 49.2671 38.8029C50.1365 37.8886 51.3158 37.375 52.5455 37.375C53.7751 37.375 54.9544 37.8886 55.8239 38.8029C56.6933 39.7171 57.1818 40.9571 57.1818 42.25C57.1818 43.5429 56.6933 44.7829 55.8239 45.6971C54.9544 46.6114 53.7751 47.125 52.5455 47.125ZM57.1818 17.875L63.24 26H49.4545V17.875M15.4545 47.125C14.2249 47.125 13.0456 46.6114 12.1761 45.6971C11.3067 44.7829 10.8182 43.5429 10.8182 42.25C10.8182 40.9571 11.3067 39.7171 12.1761 38.8029C13.0456 37.8886 14.2249 37.375 15.4545 37.375C16.6842 37.375 17.8635 37.8886 18.733 38.8029C19.6024 39.7171 20.0909 40.9571 20.0909 42.25C20.0909 43.5429 19.6024 44.7829 18.733 45.6971C17.8635 46.6114 16.6842 47.125 15.4545 47.125ZM58.7273 13H49.4545V0H6.18182C2.75091 0 0 2.8925 0 6.5V42.25H6.18182C6.18182 44.8359 7.15876 47.3158 8.89774 49.1443C10.6367 50.9728 12.9953 52 15.4545 52C17.9138 52 20.2724 50.9728 22.0114 49.1443C23.7503 47.3158 24.7273 44.8359 24.7273 42.25H43.2727C43.2727 44.8359 44.2497 47.3158 45.9886 49.1443C47.7276 50.9728 50.0862 52 52.5455 52C55.0047 52 57.3633 50.9728 59.1023 49.1443C60.8412 47.3158 61.8182 44.8359 61.8182 42.25H68V26L58.7273 13Z"/>
</mask>
<path d="M52.5455 37.375V35.375V37.375ZM63.24 26V28H67.226L64.8434 24.8045L63.24 26ZM49.4545 26H47.4545V28H49.4545V26ZM15.4545 37.375V35.375V37.375ZM58.7273 13L60.3555 11.8386L59.7573 11H58.7273V13ZM49.4545 13H47.4545V15H49.4545V13ZM49.4545 0H51.4545V-2H49.4545V0ZM0 42.25H-2V44.25H0V42.25ZM6.18182 42.25H8.18182V40.25H6.18182V42.25ZM15.4545 52V54V52ZM24.7273 42.25V40.25H22.7273V42.25H24.7273ZM43.2727 42.25H45.2727V40.25H43.2727V42.25ZM52.5455 52V54V52ZM61.8182 42.25V40.25H59.8182V42.25H61.8182ZM68 42.25V44.25H70V42.25H68ZM68 26H70V25.3598L69.6282 24.8386L68 26ZM52.5455 45.125C51.8796 45.125 51.2193 44.8478 50.7163 44.3188L47.8178 47.0754C49.0537 48.375 50.7521 49.125 52.5455 49.125V45.125ZM50.7163 44.3188C50.21 43.7865 49.9091 43.044 49.9091 42.25H45.9091C45.9091 44.0419 46.5851 45.7793 47.8178 47.0754L50.7163 44.3188ZM49.9091 42.25C49.9091 41.456 50.21 40.7135 50.7163 40.1811L47.8178 37.4246C46.5851 38.7207 45.9091 40.4581 45.9091 42.25H49.9091ZM50.7163 40.1811C51.2193 39.6522 51.8796 39.375 52.5455 39.375V35.375C50.7521 35.375 49.0537 36.125 47.8178 37.4246L50.7163 40.1811ZM52.5455 39.375C53.2113 39.375 53.8716 39.6522 54.3746 40.1811L57.2731 37.4246C56.0372 36.125 54.3388 35.375 52.5455 35.375V39.375ZM54.3746 40.1811C54.8809 40.7135 55.1818 41.456 55.1818 42.25H59.1818C59.1818 40.4581 58.5058 38.7207 57.2731 37.4246L54.3746 40.1811ZM55.1818 42.25C55.1818 43.044 54.8809 43.7865 54.3746 44.3188L57.2731 47.0754C58.5058 45.7793 59.1818 44.0419 59.1818 42.25H55.1818ZM54.3746 44.3188C53.8716 44.8478 53.2113 45.125 52.5455 45.125V49.125C54.3388 49.125 56.0372 48.375 57.2731 47.0754L54.3746 44.3188ZM55.5785 19.0705L61.6366 27.1955L64.8434 24.8045L58.7852 16.6795L55.5785 19.0705ZM63.24 24H49.4545V28H63.24V24ZM51.4545 26V17.875H47.4545V26H51.4545ZM15.4545 45.125C14.7887 45.125 14.1284 44.8478 13.6254 44.3188L10.7269 47.0754C11.9628 48.375 13.6612 49.125 15.4545 49.125V45.125ZM13.6254 44.3188C13.1191 43.7865 12.8182 43.044 12.8182 42.25H8.81818C8.81818 44.0419 9.49422 45.7793 10.7269 47.0754L13.6254 44.3188ZM12.8182 42.25C12.8182 41.456 13.1191 40.7135 13.6254 40.1811L10.7269 37.4246C9.49422 38.7207 8.81818 40.4581 8.81818 42.25H12.8182ZM13.6254 40.1811C14.1284 39.6522 14.7886 39.375 15.4545 39.375V35.375C13.6612 35.375 11.9628 36.125 10.7269 37.4246L13.6254 40.1811ZM15.4545 39.375C16.1204 39.375 16.7807 39.6522 17.2837 40.1811L20.1822 37.4246C18.9463 36.125 17.2479 35.375 15.4545 35.375V39.375ZM17.2837 40.1811C17.79 40.7135 18.0909 41.456 18.0909 42.25H22.0909C22.0909 40.4581 21.4149 38.7207 20.1822 37.4246L17.2837 40.1811ZM18.0909 42.25C18.0909 43.044 17.79 43.7865 17.2837 44.3188L20.1822 47.0754C21.4149 45.7793 22.0909 44.0419 22.0909 42.25H18.0909ZM17.2837 44.3188C16.7807 44.8478 16.1204 45.125 15.4545 45.125V49.125C17.2479 49.125 18.9463 48.375 20.1822 47.0754L17.2837 44.3188ZM58.7273 11H49.4545V15H58.7273V11ZM51.4545 13V0H47.4545V13H51.4545ZM49.4545 -2H6.18182V2H49.4545V-2ZM6.18182 -2C1.55294 -2 -2 1.88371 -2 6.5H2C2 3.90129 3.94888 2 6.18182 2V-2ZM-2 6.5V42.25H2V6.5H-2ZM0 44.25H6.18182V40.25H0V44.25ZM4.18182 42.25C4.18182 45.3348 5.34633 48.3122 7.4485 50.5226L10.347 47.766C8.9712 46.3194 8.18182 44.3369 8.18182 42.25H4.18182ZM7.4485 50.5226C9.55391 52.7364 12.4315 54 15.4545 54V50C13.559 50 11.7195 49.2092 10.347 47.766L7.4485 50.5226ZM15.4545 54C18.4776 54 21.3552 52.7364 23.4606 50.5226L20.5621 47.766C19.1896 49.2092 17.3501 50 15.4545 50V54ZM23.4606 50.5226C25.5628 48.3122 26.7273 45.3348 26.7273 42.25H22.7273C22.7273 44.3369 21.9379 46.3194 20.5621 47.766L23.4606 50.5226ZM24.7273 44.25H43.2727V40.25H24.7273V44.25ZM41.2727 42.25C41.2727 45.3348 42.4372 48.3122 44.5394 50.5226L47.4379 47.766C46.0621 46.3194 45.2727 44.3369 45.2727 42.25H41.2727ZM44.5394 50.5226C46.6448 52.7364 49.5224 54 52.5455 54V50C50.6499 50 48.8104 49.2092 47.4379 47.766L44.5394 50.5226ZM52.5455 54C55.5685 54 58.4461 52.7364 60.5515 50.5226L57.653 47.766C56.2805 49.2092 54.441 50 52.5455 50V54ZM60.5515 50.5226C62.6537 48.3122 63.8182 45.3348 63.8182 42.25H59.8182C59.8182 44.3369 59.0288 46.3194 57.653 47.766L60.5515 50.5226ZM61.8182 44.25H68V40.25H61.8182V44.25ZM70 42.25V26H66V42.25H70ZM69.6282 24.8386L60.3555 11.8386L57.099 14.1614L66.3718 27.1614L69.6282 24.8386Z" fill="#6C757D" fill-opacity="0.78" mask="url(#path-1-inside-1_83_3050)"/>
</svg>
