<svg width="13" height="13" viewBox="0 0 13 13" fill="none" xmlns="http://www.w3.org/2000/svg">
<path d="M11.8791 4.36802L8.58172 3.88729L7.10793 0.899093C6.84387 0.366454 6.07876 0.359683 5.81245 0.899093L4.33866 3.88729L1.04127 4.36802C0.449946 4.45378 0.212966 5.18277 0.641786 5.60031L3.02738 7.92496L2.46314 11.2088C2.36158 11.8024 2.98675 12.247 3.51036 11.9694L6.46019 10.4189L9.41002 11.9694C9.93363 12.2448 10.5588 11.8024 10.4572 11.2088L9.893 7.92496L12.2786 5.60031C12.7074 5.18277 12.4704 4.45378 11.8791 4.36802ZM8.73067 7.54579L9.26557 10.6694L6.46019 9.19562L3.65481 10.6694L4.1897 7.54579L1.91922 5.33399L5.05637 4.87809L6.46019 2.03434L7.86401 4.87809L11.0012 5.33399L8.73067 7.54579Z" fill="#F6BC3E"/>
</svg>
